<?xml version="1.0" encoding="UTF-8"?>
<!DOCTYPE svg PUBLIC "-//W3C//DTD SVG 1.1//EN" "http://www.w3.org/Graphics/SVG/1.1/DTD/svg11.dtd">
<svg xmlns="http://www.w3.org/2000/svg" version="1.1" width="300px" height="300px" style="shape-rendering:geometricPrecision; text-rendering:geometricPrecision; image-rendering:optimizeQuality; fill-rule:evenodd; clip-rule:evenodd" xmlns:xlink="http://www.w3.org/1999/xlink">
<g><path style="opacity:1" fill="#95cfdc" d="M 104.5,5.5 C 106.941,7.02965 108.108,9.36298 108,12.5C 108.718,11.5494 109.551,11.3828 110.5,12C 109.035,13.7742 107.702,15.6075 106.5,17.5C 106.15,20.8038 105.816,24.1372 105.5,27.5C 104.391,28.5896 103.391,28.5896 102.5,27.5C 101.423,25.2706 100.756,22.9372 100.5,20.5C 97.3043,20.8986 94.3043,21.8986 91.5,23.5C 94.2414,30.7235 96.5748,38.0568 98.5,45.5C 97.209,45.2627 96.209,45.596 95.5,46.5C 92.4409,41.3868 89.6076,36.0534 87,30.5C 86.0922,28.5614 84.5922,27.5614 82.5,27.5C 82.6495,26.448 82.4828,25.448 82,24.5C 81.3457,25.6956 80.8457,25.6956 80.5,24.5C 81.2485,22.6675 82.2485,21.0009 83.5,19.5C 81.8554,18.3037 80.1887,17.3037 78.5,16.5C 86.8352,12.0548 95.5019,8.3881 104.5,5.5 Z"/></g>
<g><path style="opacity:1" fill="#168643" d="M 163.5,37.5 C 159.119,37.6282 154.785,37.2949 150.5,36.5C 150.644,28.4903 150.977,20.4903 151.5,12.5C 154.327,11.6317 157.327,11.6317 160.5,12.5C 160.5,18.1667 160.5,23.8333 160.5,29.5C 162.5,29.5 164.5,29.5 166.5,29.5C 166.5,32.1667 166.5,34.8333 166.5,37.5C 165.5,37.5 164.5,37.5 163.5,37.5 Z"/></g>
<g><path style="opacity:1" fill="#07823b" d="M 181.5,41.5 C 172.874,38.5886 169.707,32.5886 172,23.5C 172.513,22.4734 173.013,21.4734 173.5,20.5C 179.582,14.329 186.249,13.829 193.5,19C 198.592,25.2701 198.759,31.7701 194,38.5C 190.248,41.0769 186.081,42.0769 181.5,41.5 Z"/></g>
<g><path style="opacity:1" fill="#8bcad8" d="M 129.5,-0.5 C 142.833,-0.5 156.167,-0.5 169.5,-0.5C 197.516,3.72464 222.516,14.7246 244.5,32.5C 244.583,37.207 243.25,37.707 240.5,34C 241.492,31.5787 240.492,30.9121 237.5,32C 237,32.5 236.5,33 236,33.5C 234.333,33.1667 232.667,32.8333 231,32.5C 230.5,33.5 230,34.5 229.5,35.5C 231.145,36.6963 232.811,37.6963 234.5,38.5C 228.497,43.8596 223.497,50.1929 219.5,57.5C 221.46,59.1563 223.46,60.823 225.5,62.5C 229.233,58.7728 232.566,54.7728 235.5,50.5C 237.17,50.2488 238.67,49.5822 240,48.5C 240.49,49.7932 240.657,51.1266 240.5,52.5C 239.185,53.667 238.519,55.167 238.5,57C 239.629,60.9229 241.295,64.5896 243.5,68C 243.15,69.2575 242.483,69.5908 241.5,69C 240.529,64.6884 238.029,61.5217 234,59.5C 231.253,62.0744 230.753,65.0744 232.5,68.5C 232.297,70.0443 231.63,71.3777 230.5,72.5C 234.169,74.743 234.169,76.743 230.5,78.5C 231.376,79.2508 232.376,79.7508 233.5,80C 230.629,80.1308 228.295,81.2975 226.5,83.5C 225.109,82.3554 223.776,82.3554 222.5,83.5C 224.571,84.9759 225.571,86.9759 225.5,89.5C 223.821,89.2852 222.821,89.9519 222.5,91.5C 217.49,85.4902 211.823,80.1569 205.5,75.5C 206.15,73.5648 206.483,71.5648 206.5,69.5C 207.5,69.5 208.5,69.5 209.5,69.5C 209.281,68.325 209.614,67.325 210.5,66.5C 211.72,67.7111 212.887,67.7111 214,66.5C 216,67.8333 218,69.1667 220,70.5C 221.523,68.4308 222.357,66.0974 222.5,63.5C 220.738,63.6427 219.071,63.3094 217.5,62.5C 214.054,64.8834 210.387,65.5501 206.5,64.5C 205.167,63.8333 205.167,63.1667 206.5,62.5C 209.577,63.877 212.577,63.7104 215.5,62C 214.5,61 213.5,60 212.5,59C 213.38,57.6439 213.714,56.1439 213.5,54.5C 215.167,54.5 216.833,54.5 218.5,54.5C 217.949,51.1933 217.616,47.8599 217.5,44.5C 223.218,43.0786 225.384,39.412 224,33.5C 219.171,29.4158 213.838,26.0825 208,23.5C 203.376,30.4143 199.543,37.7476 196.5,45.5C 195.033,42.1032 193.033,41.7699 190.5,44.5C 187.575,43.0473 184.575,42.0473 181.5,41.5C 186.081,42.0769 190.248,41.0769 194,38.5C 198.759,31.7701 198.592,25.2701 193.5,19C 186.249,13.829 179.582,14.329 173.5,20.5C 169.618,19.398 166.285,17.5647 163.5,15C 162.663,13.9887 162.33,12.8221 162.5,11.5C 165.721,10.8891 168.721,9.72243 171.5,8C 170.216,7.31621 169.049,7.48288 168,8.5C 167.319,5.61183 165.819,4.94517 163.5,6.5C 161.964,5.75146 160.631,4.75146 159.5,3.5C 158.063,6.04434 156.563,6.04434 155,3.5C 154.51,4.79323 154.343,6.12656 154.5,7.5C 153.07,7.42082 151.736,7.75415 150.5,8.5C 149.396,6.61145 148.063,4.94478 146.5,3.5C 145.614,4.32496 145.281,5.32496 145.5,6.5C 141.818,6.6653 138.152,6.49863 134.5,6C 133.382,4.92644 132.382,3.75978 131.5,2.5C 129.958,3.74684 128.458,3.74684 127,2.5C 124.992,4.77398 123.825,4.10731 123.5,0.5C 125.735,0.794717 127.735,0.461384 129.5,-0.5 Z"/></g>
<g><path style="opacity:1" fill="#0b833e" d="M 213.5,54.5 C 213.167,54.5 212.833,54.5 212.5,54.5C 210.856,53.6836 209.69,52.3502 209,50.5C 208.949,47.7234 208.782,45.0567 208.5,42.5C 206.886,44.7499 205.053,46.7499 203,48.5C 200.747,47.6227 198.581,46.6227 196.5,45.5C 199.543,37.7476 203.376,30.4143 208,23.5C 213.838,26.0825 219.171,29.4158 224,33.5C 225.384,39.412 223.218,43.0786 217.5,44.5C 217.616,47.8599 217.949,51.1933 218.5,54.5C 216.833,54.5 215.167,54.5 213.5,54.5 Z"/></g>
<g><path style="opacity:1" fill="#8dcbd6" d="M 182.5,23.5 C 188.204,23.1464 190.037,25.813 188,31.5C 183.829,35.7791 180.995,34.9458 179.5,29C 179.863,26.8077 180.863,24.9744 182.5,23.5 Z"/></g>
<g><path style="opacity:1" fill="#81c5c8" d="M 211.5,33.5 C 215.161,33.3501 216.161,34.8501 214.5,38C 210.668,38.514 209.668,37.014 211.5,33.5 Z"/></g>
<g><path style="opacity:1" fill="#0b833d" d="M 64.5,52.5 C 62.0751,49.4114 60.0751,46.0781 58.5,42.5C 60.7917,41.3761 62.9583,40.0427 65,38.5C 68.5253,42.3633 71.692,46.53 74.5,51C 76.5029,50.5808 78.5029,49.7474 80.5,48.5C 82.9952,49.8341 84.1619,51.8341 84,54.5C 80.5806,57.7512 76.7473,60.4179 72.5,62.5C 69.4297,59.4362 66.7631,56.1029 64.5,52.5 Z"/></g>
<g><path style="opacity:1" fill="#0b833e" d="M 234.5,38.5 C 236.509,40.169 238.509,41.8357 240.5,43.5C 238.42,45.5732 236.754,47.9066 235.5,50.5C 232.566,54.7728 229.233,58.7728 225.5,62.5C 223.46,60.823 221.46,59.1563 219.5,57.5C 223.497,50.1929 228.497,43.8596 234.5,38.5 Z"/></g>
<g><path style="opacity:1" fill="#9ad3df" d="M 123.5,0.5 C 123.825,4.10731 124.992,4.77398 127,2.5C 128.458,3.74684 129.958,3.74684 131.5,2.5C 132.382,3.75978 133.382,4.92644 134.5,6C 138.152,6.49863 141.818,6.6653 145.5,6.5C 145.281,5.32496 145.614,4.32496 146.5,3.5C 148.063,4.94478 149.396,6.61145 150.5,8.5C 151.736,7.75415 153.07,7.42082 154.5,7.5C 154.343,6.12656 154.51,4.79323 155,3.5C 156.563,6.04434 158.063,6.04434 159.5,3.5C 160.631,4.75146 161.964,5.75146 163.5,6.5C 165.819,4.94517 167.319,5.61183 168,8.5C 169.049,7.48288 170.216,7.31621 171.5,8C 168.721,9.72243 165.721,10.8891 162.5,11.5C 162.33,12.8221 162.663,13.9887 163.5,15C 166.285,17.5647 169.618,19.398 173.5,20.5C 173.013,21.4734 172.513,22.4734 172,23.5C 169.707,32.5886 172.874,38.5886 181.5,41.5C 184.575,42.0473 187.575,43.0473 190.5,44.5C 193.033,41.7699 195.033,42.1032 196.5,45.5C 198.581,46.6227 200.747,47.6227 203,48.5C 205.053,46.7499 206.886,44.7499 208.5,42.5C 208.782,45.0567 208.949,47.7234 209,50.5C 209.69,52.3502 210.856,53.6836 212.5,54.5C 211.127,54.3433 209.793,54.51 208.5,55C 207.359,55.7412 207.359,56.5745 208.5,57.5C 208.167,58.5 207.5,59.1667 206.5,59.5C 205.304,59.1543 205.304,58.6543 206.5,58C 202.544,56.8861 202.544,56.0527 206.5,55.5C 207.09,50.4902 205.09,48.8235 200.5,50.5C 201.262,50.9106 202.262,51.0773 203.5,51C 202.406,52.7803 201.406,54.6136 200.5,56.5C 197.691,53.5107 194.358,52.8441 190.5,54.5C 189.252,53.9598 188.085,53.2931 187,52.5C 186.439,54.7254 185.439,56.7254 184,58.5C 179.564,57.5257 175.064,57.5257 170.5,58.5C 169.833,58.5 169.167,58.5 168.5,58.5C 169.245,54.6927 167.578,52.1927 163.5,51C 164.357,50.3109 165.023,49.4776 165.5,48.5C 164.264,46.6889 164.264,44.8556 165.5,43C 165.095,42.0546 164.428,41.3879 163.5,41C 166.125,39.6072 166.125,38.4405 163.5,37.5C 164.5,37.5 165.5,37.5 166.5,37.5C 166.5,34.8333 166.5,32.1667 166.5,29.5C 164.5,29.5 162.5,29.5 160.5,29.5C 160.5,23.8333 160.5,18.1667 160.5,12.5C 157.327,11.6317 154.327,11.6317 151.5,12.5C 149.968,13.3696 148.468,13.0362 147,11.5C 146.333,14.5 146.333,17.5 147,20.5C 148.131,19.3961 148.965,19.7295 149.5,21.5C 148.372,22.2621 147.205,22.9288 146,23.5C 145.809,25.7078 145.309,27.7078 144.5,29.5C 144.5,27.1667 144.5,24.8333 144.5,22.5C 142.5,22.5 140.5,22.5 138.5,22.5C 138.5,21.5 138.5,20.5 138.5,19.5C 140.833,19.5 143.167,19.5 145.5,19.5C 145.5,17.1667 145.5,14.8333 145.5,12.5C 143.167,12.5 140.833,12.5 138.5,12.5C 140.607,11.5318 142.941,11.1984 145.5,11.5C 145.55,9.40993 144.55,8.0766 142.5,7.5C 140.493,8.17088 138.66,9.17088 137,10.5C 136.5,10.3333 136,10.1667 135.5,10C 136.308,9.69238 136.975,9.19238 137.5,8.5C 134.93,7.77708 132.597,6.61042 130.5,5C 127.833,5 125.167,5 122.5,5C 121.663,3.98873 121.33,2.82207 121.5,1.5C 122.167,1.16667 122.833,0.833333 123.5,0.5 Z"/></g>
<g><path style="opacity:1" fill="#0c833e" d="M 232.5,68.5 C 230.753,65.0744 231.253,62.0744 234,59.5C 238.029,61.5217 240.529,64.6884 241.5,69C 242.483,69.5908 243.15,69.2575 243.5,68C 241.295,64.5896 239.629,60.9229 238.5,57C 238.519,55.167 239.185,53.667 240.5,52.5C 247.418,49.0245 252.918,50.6912 257,57.5C 257.667,59.8333 257.667,62.1667 257,64.5C 256.586,64.9574 256.086,65.2907 255.5,65.5C 254.3,64.4688 252.966,63.6355 251.5,63C 251.012,60.8239 250.012,58.9906 248.5,57.5C 247.417,58.365 247.251,59.365 248,60.5C 249.91,63.156 251.41,65.9893 252.5,69C 250.734,75.0902 246.734,77.4236 240.5,76C 237.308,73.9718 234.641,71.4718 232.5,68.5 Z"/></g>
<g><path style="opacity:1" fill="#0d833e" d="M 49.5,52.5 C 56.1032,56.4741 62.7699,60.4741 69.5,64.5C 67.8122,66.8545 65.8122,68.8545 63.5,70.5C 62.5178,69.8592 61.5178,69.1925 60.5,68.5C 59.3523,70.1487 58.019,71.6487 56.5,73C 58.0074,73.8373 58.5074,75.0039 58,76.5C 56.5,78 55,79.5 53.5,81C 52.5509,81.6172 51.7175,81.4506 51,80.5C 47.6201,73.5728 44.1201,66.7395 40.5,60C 42.4881,56.1697 45.4881,53.6697 49.5,52.5 Z"/></g>
<g><path style="opacity:1" fill="#abdbe4" d="M 121.5,1.5 C 121.33,2.82207 121.663,3.98873 122.5,5C 125.167,5 127.833,5 130.5,5C 132.597,6.61042 134.93,7.77708 137.5,8.5C 136.975,9.19238 136.308,9.69238 135.5,10C 136,10.1667 136.5,10.3333 137,10.5C 138.66,9.17088 140.493,8.17088 142.5,7.5C 144.55,8.0766 145.55,9.40993 145.5,11.5C 142.941,11.1984 140.607,11.5318 138.5,12.5C 135.455,12.5079 132.455,12.8413 129.5,13.5C 129.935,21.4948 130.269,29.4948 130.5,37.5C 133.5,37.5 136.5,37.5 139.5,37.5C 139.5,34.8333 139.5,32.1667 139.5,29.5C 141.167,29.5 142.833,29.5 144.5,29.5C 145.309,27.7078 145.809,25.7078 146,23.5C 147.205,22.9288 148.372,22.2621 149.5,21.5C 148.965,19.7295 148.131,19.3961 147,20.5C 146.333,17.5 146.333,14.5 147,11.5C 148.468,13.0362 149.968,13.3696 151.5,12.5C 150.977,20.4903 150.644,28.4903 150.5,36.5C 154.785,37.2949 159.119,37.6282 163.5,37.5C 166.125,38.4405 166.125,39.6072 163.5,41C 164.428,41.3879 165.095,42.0546 165.5,43C 164.264,44.8556 164.264,46.6889 165.5,48.5C 165.023,49.4776 164.357,50.3109 163.5,51C 167.578,52.1927 169.245,54.6927 168.5,58.5C 134.613,52.884 105.613,62.2174 81.5,86.5C 76.6879,85.1 73.0213,82.2666 70.5,78C 74.0555,75.148 73.5555,72.648 69,70.5C 67.324,71.0611 65.9906,72.0611 65,73.5C 64.4867,72.4734 63.9867,71.4734 63.5,70.5C 65.8122,68.8545 67.8122,66.8545 69.5,64.5C 62.7699,60.4741 56.1032,56.4741 49.5,52.5C 51.4352,51.8505 53.4352,51.5172 55.5,51.5C 55.3433,52.8734 55.51,54.2068 56,55.5C 57.0113,54.6634 58.1779,54.33 59.5,54.5C 59.4125,57.5983 59.9125,57.9316 61,55.5C 61.6054,57.4812 62.6054,57.8146 64,56.5C 64.49,55.2068 64.6567,53.8734 64.5,52.5C 66.7631,56.1029 69.4297,59.4362 72.5,62.5C 76.7473,60.4179 80.5806,57.7512 84,54.5C 84.1619,51.8341 82.9952,49.8341 80.5,48.5C 78.5029,49.7474 76.5029,50.5808 74.5,51C 71.692,46.53 68.5253,42.3633 65,38.5C 62.9583,40.0427 60.7917,41.3761 58.5,42.5C 58.6399,40.8762 57.9733,39.7096 56.5,39C 57.6776,38.0331 59.011,37.5331 60.5,37.5C 58.9288,34.9773 59.4288,32.9773 62,31.5C 62.4935,29.8659 62.6602,28.1992 62.5,26.5C 67.4607,22.6802 72.7941,19.3468 78.5,16.5C 80.1887,17.3037 81.8554,18.3037 83.5,19.5C 82.2485,21.0009 81.2485,22.6675 80.5,24.5C 80.8457,25.6956 81.3457,25.6956 82,24.5C 82.4828,25.448 82.6495,26.448 82.5,27.5C 80.6814,28.5845 79.0147,29.9178 77.5,31.5C 80.9117,38.6577 84.5784,45.6577 88.5,52.5C 90.5,51.5 92.5,50.5 94.5,49.5C 95.3857,48.675 95.719,47.675 95.5,46.5C 96.209,45.596 97.209,45.2627 98.5,45.5C 98.7352,46.0967 99.2352,46.4301 100,46.5C 102.319,45.1287 104.819,44.4621 107.5,44.5C 107.045,41.7965 106.378,39.1298 105.5,36.5C 106.117,34.3635 107.451,33.5302 109.5,34C 110.525,36.0715 111.358,38.2381 112,40.5C 115.296,41.5153 118.129,40.6819 120.5,38C 118.265,31.1294 115.932,24.2961 113.5,17.5C 111.229,16.6365 108.895,16.6365 106.5,17.5C 107.702,15.6075 109.035,13.7742 110.5,12C 109.551,11.3828 108.718,11.5494 108,12.5C 108.108,9.36298 106.941,7.02965 104.5,5.5C 110.05,3.69583 115.717,2.36249 121.5,1.5 Z"/></g>
<g><path style="opacity:1" fill="#0c833e" d="M 82.5,27.5 C 84.5922,27.5614 86.0922,28.5614 87,30.5C 89.6076,36.0534 92.4409,41.3868 95.5,46.5C 95.719,47.675 95.3857,48.675 94.5,49.5C 92.5,50.5 90.5,51.5 88.5,52.5C 84.5784,45.6577 80.9117,38.6577 77.5,31.5C 79.0147,29.9178 80.6814,28.5845 82.5,27.5 Z"/></g>
<g><path style="opacity:1" fill="#0d833e" d="M 98.5,45.5 C 96.5748,38.0568 94.2414,30.7235 91.5,23.5C 94.3043,21.8986 97.3043,20.8986 100.5,20.5C 100.756,22.9372 101.423,25.2706 102.5,27.5C 103.391,28.5896 104.391,28.5896 105.5,27.5C 105.816,24.1372 106.15,20.8038 106.5,17.5C 108.895,16.6365 111.229,16.6365 113.5,17.5C 115.932,24.2961 118.265,31.1294 120.5,38C 118.129,40.6819 115.296,41.5153 112,40.5C 111.358,38.2381 110.525,36.0715 109.5,34C 107.451,33.5302 106.117,34.3635 105.5,36.5C 106.378,39.1298 107.045,41.7965 107.5,44.5C 104.819,44.4621 102.319,45.1287 100,46.5C 99.2352,46.4301 98.7352,46.0967 98.5,45.5 Z"/></g>
<g><path style="opacity:1" fill="#0a833d" d="M 138.5,12.5 C 140.833,12.5 143.167,12.5 145.5,12.5C 145.5,14.8333 145.5,17.1667 145.5,19.5C 143.167,19.5 140.833,19.5 138.5,19.5C 138.5,20.5 138.5,21.5 138.5,22.5C 140.5,22.5 142.5,22.5 144.5,22.5C 144.5,24.8333 144.5,27.1667 144.5,29.5C 142.833,29.5 141.167,29.5 139.5,29.5C 139.5,32.1667 139.5,34.8333 139.5,37.5C 136.5,37.5 133.5,37.5 130.5,37.5C 130.269,29.4948 129.935,21.4948 129.5,13.5C 132.455,12.8413 135.455,12.5079 138.5,12.5 Z"/></g>
<g><path style="opacity:1" fill="#fdfdfc" d="M 168.5,58.5 C 169.167,58.5 169.833,58.5 170.5,58.5C 183.041,62.2698 194.707,67.9364 205.5,75.5C 211.823,80.1569 217.49,85.4902 222.5,91.5C 230.273,101.713 235.94,113.046 239.5,125.5C 240.482,128.763 241.149,132.097 241.5,135.5C 242.764,144.488 242.764,153.488 241.5,162.5C 240.822,167.571 239.822,172.571 238.5,177.5C 223.04,219.339 192.873,241.006 148,242.5C 142.133,242.384 136.3,241.884 130.5,241C 123.857,238.73 117.191,236.564 110.5,234.5C 87.5384,223.202 71.5384,205.535 62.5,181.5C 59.1085,171.092 57.1085,160.425 56.5,149.5C 56.8203,125.211 65.1537,104.211 81.5,86.5C 105.613,62.2174 134.613,52.884 168.5,58.5 Z"/></g>
<g><path style="opacity:1" fill="#a8d9e5" d="M 212.5,54.5 C 212.833,54.5 213.167,54.5 213.5,54.5C 213.714,56.1439 213.38,57.6439 212.5,59C 213.5,60 214.5,61 215.5,62C 212.577,63.7104 209.577,63.877 206.5,62.5C 205.167,63.1667 205.167,63.8333 206.5,64.5C 210.387,65.5501 214.054,64.8834 217.5,62.5C 219.071,63.3094 220.738,63.6427 222.5,63.5C 222.357,66.0974 221.523,68.4308 220,70.5C 218,69.1667 216,67.8333 214,66.5C 212.887,67.7111 211.72,67.7111 210.5,66.5C 209.614,67.325 209.281,68.325 209.5,69.5C 208.5,69.5 207.5,69.5 206.5,69.5C 206.483,71.5648 206.15,73.5648 205.5,75.5C 194.707,67.9364 183.041,62.2698 170.5,58.5C 175.064,57.5257 179.564,57.5257 184,58.5C 185.439,56.7254 186.439,54.7254 187,52.5C 188.085,53.2931 189.252,53.9598 190.5,54.5C 194.358,52.8441 197.691,53.5107 200.5,56.5C 201.406,54.6136 202.406,52.7803 203.5,51C 202.262,51.0773 201.262,50.9106 200.5,50.5C 205.09,48.8235 207.09,50.4902 206.5,55.5C 202.544,56.0527 202.544,56.8861 206.5,58C 205.304,58.6543 205.304,59.1543 206.5,59.5C 207.5,59.1667 208.167,58.5 208.5,57.5C 207.359,56.5745 207.359,55.7412 208.5,55C 209.793,54.51 211.127,54.3433 212.5,54.5 Z"/></g>
<g><path style="opacity:1" fill="#94cfcb" d="M 49.5,61.5 C 51.736,62.3891 53.736,63.7224 55.5,65.5C 54.7579,66.2868 53.9246,66.9535 53,67.5C 51.5576,65.6089 50.3909,63.6089 49.5,61.5 Z"/></g>
<g><path style="opacity:1" fill="#0d833d" d="M 29.5,88.5 C 27.5286,87.1769 25.5286,85.8435 23.5,84.5C 22.3744,83.1916 22.3744,81.8583 23.5,80.5C 26.103,76.9536 28.9364,73.6203 32,70.5C 33.9014,71.5355 35.7348,72.7022 37.5,74C 36.1667,76 34.8333,78 33.5,80C 34.2752,81.2295 35.2752,81.5628 36.5,81C 38.2827,76.5328 40.4493,76.3661 43,80.5C 43.1405,82.2555 42.6405,83.9222 41.5,85.5C 43.3603,86.9387 45.027,88.6053 46.5,90.5C 45.5515,92.9438 44.0515,94.9438 42,96.5C 37.7368,93.9537 33.5702,91.287 29.5,88.5 Z"/></g>
<g><path style="opacity:1" fill="#928388" d="M 178.5,113.5 C 177.759,117.172 176.593,120.839 175,124.5C 173.383,122.237 171.55,120.237 169.5,118.5C 169.5,118.167 169.5,117.833 169.5,117.5C 171.148,115.544 171.815,113.211 171.5,110.5C 172.833,110.5 174.167,110.5 175.5,110.5C 175.5,108.5 175.5,106.5 175.5,104.5C 173.833,104.5 172.167,104.5 170.5,104.5C 170.349,100.686 168.349,99.0193 164.5,99.5C 164.5,101.167 164.5,102.833 164.5,104.5C 160.5,103.833 158.833,105.5 159.5,109.5C 157.806,110.686 156.139,110.519 154.5,109C 152.623,106.749 151.123,104.249 150,101.5C 149.31,100.262 148.81,100.262 148.5,101.5C 148.426,98.6514 148.092,95.6514 147.5,92.5C 144.958,95.6853 143.458,99.352 143,103.5C 142.902,101.381 142.069,99.714 140.5,98.5C 138.367,104.696 136.701,111.029 135.5,117.5C 132.316,110.637 133.15,104.304 138,98.5C 140.5,96 143,93.5 145.5,91C 144.552,90.5172 143.552,90.3505 142.5,90.5C 151.785,87.1472 160.785,87.9805 169.5,93C 175.111,98.7182 178.111,105.552 178.5,113.5 Z"/></g>
<g><path style="opacity:1" fill="#7fc5d6" d="M 244.5,32.5 C 261.91,46.3294 275.243,63.3294 284.5,83.5C 283.732,84.2625 283.232,85.2625 283,86.5C 282.586,86.0426 282.086,85.7093 281.5,85.5C 278.467,87.3444 275.134,88.3444 271.5,88.5C 270.5,88.8333 269.5,89.1667 268.5,89.5C 269.894,90.6869 269.727,91.3535 268,91.5C 267.127,91.2645 266.293,90.9312 265.5,90.5C 261.527,94.4432 258.027,98.7765 255,103.5C 253.044,103.216 250.877,103.216 248.5,103.5C 248.785,105.288 248.452,106.955 247.5,108.5C 246.914,108.291 246.414,107.957 246,107.5C 243.426,110.42 242.259,113.587 242.5,117C 243.786,119.022 244.786,121.189 245.5,123.5C 244.758,124.287 243.925,124.953 243,125.5C 241.855,124.316 240.688,124.316 239.5,125.5C 235.94,113.046 230.273,101.713 222.5,91.5C 222.821,89.9519 223.821,89.2852 225.5,89.5C 225.571,86.9759 224.571,84.9759 222.5,83.5C 223.776,82.3554 225.109,82.3554 226.5,83.5C 228.295,81.2975 230.629,80.1308 233.5,80C 232.376,79.7508 231.376,79.2508 230.5,78.5C 234.169,76.743 234.169,74.743 230.5,72.5C 231.63,71.3777 232.297,70.0443 232.5,68.5C 234.641,71.4718 237.308,73.9718 240.5,76C 246.734,77.4236 250.734,75.0902 252.5,69C 251.41,65.9893 249.91,63.156 248,60.5C 247.251,59.365 247.417,58.365 248.5,57.5C 250.012,58.9906 251.012,60.8239 251.5,63C 252.966,63.6355 254.3,64.4688 255.5,65.5C 256.086,65.2907 256.586,64.9574 257,64.5C 257.667,62.1667 257.667,59.8333 257,57.5C 252.918,50.6912 247.418,49.0245 240.5,52.5C 240.657,51.1266 240.49,49.7932 240,48.5C 238.67,49.5822 237.17,50.2488 235.5,50.5C 236.754,47.9066 238.42,45.5732 240.5,43.5C 238.509,41.8357 236.509,40.169 234.5,38.5C 232.811,37.6963 231.145,36.6963 229.5,35.5C 230,34.5 230.5,33.5 231,32.5C 232.667,32.8333 234.333,33.1667 236,33.5C 236.5,33 237,32.5 237.5,32C 240.492,30.9121 241.492,31.5787 240.5,34C 243.25,37.707 244.583,37.207 244.5,32.5 Z"/></g>
<g><path style="opacity:1" fill="#07823c" d="M 264.5,67.5 C 265.496,67.4142 266.329,67.7476 267,68.5C 270,72.8333 273,77.1667 276,81.5C 276.342,84.6829 274.842,86.6829 271.5,87.5C 270.167,86.1667 268.833,84.8333 267.5,83.5C 263.341,86.7467 259.008,89.7467 254.5,92.5C 252.367,90.9095 250.701,88.9095 249.5,86.5C 253.209,82.6272 257.376,79.2938 262,76.5C 262.115,74.8932 261.615,73.3932 260.5,72C 261.344,69.9933 262.677,68.4933 264.5,67.5 Z"/></g>
<g><path style="opacity:1" fill="#9fd7e3" d="M 284.5,83.5 C 286.677,86.52 288.343,89.8533 289.5,93.5C 288.73,95.2986 287.397,96.6319 285.5,97.5C 285.101,95.7941 285.101,94.2941 285.5,93C 283.831,92.8782 282.165,93.2115 280.5,94C 280.833,94.3333 281.167,94.6667 281.5,95C 279.075,99.6249 277.241,104.125 276,108.5C 272.057,104.296 267.89,103.962 263.5,107.5C 262.749,108.376 262.249,109.376 262,110.5C 260.815,108.441 259.648,108.274 258.5,110C 259.489,113.432 260.989,113.932 263,111.5C 263.5,112 264,112.5 264.5,113C 263.167,114 263.167,115 264.5,116C 263.167,116.333 261.833,116.667 260.5,117C 263.877,118.039 264.543,119.539 262.5,121.5C 266.112,124.023 269.778,126.356 273.5,128.5C 272.726,129.711 271.893,129.711 271,128.5C 270.482,131.023 269.148,133.023 267,134.5C 266.383,133.551 266.549,132.718 267.5,132C 266.289,130.422 264.955,130.255 263.5,131.5C 263.709,132.086 264.043,132.586 264.5,133C 260.736,133.459 258.903,135.626 259,139.5C 258.439,140.022 257.772,140.355 257,140.5C 255.765,139.385 254.598,139.385 253.5,140.5C 252.251,138.525 250.751,138.191 249,139.5C 246.844,137.505 244.344,136.172 241.5,135.5C 241.149,132.097 240.482,128.763 239.5,125.5C 240.688,124.316 241.855,124.316 243,125.5C 243.925,124.953 244.758,124.287 245.5,123.5C 244.786,121.189 243.786,119.022 242.5,117C 242.259,113.587 243.426,110.42 246,107.5C 246.414,107.957 246.914,108.291 247.5,108.5C 248.452,106.955 248.785,105.288 248.5,103.5C 250.877,103.216 253.044,103.216 255,103.5C 258.027,98.7765 261.527,94.4432 265.5,90.5C 266.293,90.9312 267.127,91.2645 268,91.5C 269.727,91.3535 269.894,90.6869 268.5,89.5C 269.5,89.1667 270.5,88.8333 271.5,88.5C 275.134,88.3444 278.467,87.3444 281.5,85.5C 282.086,85.7093 282.586,86.0426 283,86.5C 283.232,85.2625 283.732,84.2625 284.5,83.5 Z"/></g>
<g><path style="opacity:1" fill="#f57389" d="M 169.5,117.5 C 166.452,116.75 164.785,114.75 164.5,111.5C 162.021,112.964 160.355,112.297 159.5,109.5C 158.833,105.5 160.5,103.833 164.5,104.5C 164.5,102.833 164.5,101.167 164.5,99.5C 168.349,99.0193 170.349,100.686 170.5,104.5C 172.167,104.5 173.833,104.5 175.5,104.5C 175.5,106.5 175.5,108.5 175.5,110.5C 174.167,110.5 172.833,110.5 171.5,110.5C 171.815,113.211 171.148,115.544 169.5,117.5 Z"/></g>
<g><path style="opacity:1" fill="#f9dcd9" d="M 159.5,109.5 C 160.355,112.297 162.021,112.964 164.5,111.5C 164.785,114.75 166.452,116.75 169.5,117.5C 169.5,117.833 169.5,118.167 169.5,118.5C 169.604,120.703 170.27,122.703 171.5,124.5C 170.038,126.255 168.205,127.588 166,128.5C 165.261,131.546 164.428,134.546 163.5,137.5C 159.311,138.412 154.977,138.412 150.5,137.5C 145.688,135.93 141.355,133.596 137.5,130.5C 137.268,125.954 138.101,121.621 140,117.5C 144.733,113.027 147.567,107.694 148.5,101.5C 148.81,100.262 149.31,100.262 150,101.5C 151.123,104.249 152.623,106.749 154.5,109C 156.139,110.519 157.806,110.686 159.5,109.5 Z"/></g>
<g><path style="opacity:1" fill="#b25e6b" d="M 140.5,123.5 C 140.735,122.903 141.235,122.57 142,122.5C 144.135,123.127 146.302,123.627 148.5,124C 145.739,124.722 143.073,124.555 140.5,123.5 Z"/></g>
<g><path style="opacity:1" fill="#b46973" d="M 164.5,120.5 C 165.376,120.369 166.043,120.702 166.5,121.5C 163.894,122.652 161.227,122.818 158.5,122C 160.708,121.809 162.708,121.309 164.5,120.5 Z"/></g>
<g><path style="opacity:1" fill="#9d9095" d="M 178.5,114.5 C 179.047,117.606 180.047,120.606 181.5,123.5C 180.515,126.057 179.515,128.724 178.5,131.5C 178.022,125.888 178.022,120.222 178.5,114.5 Z"/></g>
<g><path style="opacity:1" fill="#bbe4eb" d="M 62.5,26.5 C 62.6602,28.1992 62.4935,29.8659 62,31.5C 59.4288,32.9773 58.9288,34.9773 60.5,37.5C 59.011,37.5331 57.6776,38.0331 56.5,39C 57.9733,39.7096 58.6399,40.8762 58.5,42.5C 60.0751,46.0781 62.0751,49.4114 64.5,52.5C 64.6567,53.8734 64.49,55.2068 64,56.5C 62.6054,57.8146 61.6054,57.4812 61,55.5C 59.9125,57.9316 59.4125,57.5983 59.5,54.5C 58.1779,54.33 57.0113,54.6634 56,55.5C 55.51,54.2068 55.3433,52.8734 55.5,51.5C 53.4352,51.5172 51.4352,51.8505 49.5,52.5C 45.4881,53.6697 42.4881,56.1697 40.5,60C 44.1201,66.7395 47.6201,73.5728 51,80.5C 51.7175,81.4506 52.5509,81.6172 53.5,81C 55,79.5 56.5,78 58,76.5C 58.5074,75.0039 58.0074,73.8373 56.5,73C 58.019,71.6487 59.3523,70.1487 60.5,68.5C 61.5178,69.1925 62.5178,69.8592 63.5,70.5C 63.9867,71.4734 64.4867,72.4734 65,73.5C 65.9906,72.0611 67.324,71.0611 69,70.5C 73.5555,72.648 74.0555,75.148 70.5,78C 73.0213,82.2666 76.6879,85.1 81.5,86.5C 65.1537,104.211 56.8203,125.211 56.5,149.5C 50.3672,151.299 47.0339,148.966 46.5,142.5C 44.8561,142.286 43.3561,142.62 42,143.5C 41.5172,142.552 41.3505,141.552 41.5,140.5C 44.9983,140.435 45.4983,139.101 43,136.5C 42.6824,138.061 41.8491,139.228 40.5,140C 37.854,140.497 35.1873,140.664 32.5,140.5C 32.6567,139.127 32.49,137.793 32,136.5C 30.5064,137.747 29.0064,137.747 27.5,136.5C 27.7093,135.914 28.0426,135.414 28.5,135C 25.4698,134.103 24.6364,132.603 26,130.5C 27.6537,131.653 29.1537,132.987 30.5,134.5C 31.548,133.617 32.7147,132.95 34,132.5C 36.3047,133.629 38.6381,133.629 41,132.5C 42.3261,132.755 43.3261,133.422 44,134.5C 45.9338,132.581 45.7671,131.081 43.5,130C 44.2993,127.772 43.2993,126.439 40.5,126C 41.4506,125.282 41.6172,124.449 41,123.5C 39.8869,124.711 38.7202,124.711 37.5,123.5C 35.8662,123.968 34.6995,124.968 34,126.5C 33.6667,126.167 33.3333,125.833 33,125.5C 33.1525,123.481 33.6525,121.481 34.5,119.5C 36.8273,119.247 38.8273,119.914 40.5,121.5C 41.5904,120.273 42.9238,119.44 44.5,119C 43.4404,117.702 42.2737,116.535 41,115.5C 39.6068,116.615 38.1068,117.115 36.5,117C 37.1667,116.333 37.8333,115.667 38.5,115C 37.2298,114.1 36.2298,112.934 35.5,111.5C 33.674,111.92 31.674,111.92 29.5,111.5C 29.5777,108.513 28.411,107.847 26,109.5C 24.2785,109.389 24.1118,108.889 25.5,108C 23.5,107.167 21.5,106.333 19.5,105.5C 21.751,104.182 23.751,102.516 25.5,100.5C 28.7853,100.801 31.952,102.134 35,104.5C 34.621,102.925 34.7877,101.425 35.5,100C 33.5433,98.2544 32.5433,96.0878 32.5,93.5C 31.5,93.5 30.5,93.5 29.5,93.5C 29.5,91.8333 29.5,90.1667 29.5,88.5C 33.5702,91.287 37.7368,93.9537 42,96.5C 44.0515,94.9438 45.5515,92.9438 46.5,90.5C 45.027,88.6053 43.3603,86.9387 41.5,85.5C 42.6405,83.9222 43.1405,82.2555 43,80.5C 40.4493,76.3661 38.2827,76.5328 36.5,81C 35.2752,81.5628 34.2752,81.2295 33.5,80C 34.8333,78 36.1667,76 37.5,74C 35.7348,72.7022 33.9014,71.5355 32,70.5C 28.9364,73.6203 26.103,76.9536 23.5,80.5C 22.8592,79.5178 22.1925,78.5178 21.5,77.5C 26.7899,76.0756 26.7899,73.7423 21.5,70.5C 31.6702,52.6601 45.3369,37.9934 62.5,26.5 Z"/></g>
<g><path style="opacity:1" fill="#faf8f8" d="M 171.5,124.5 C 173.018,127.448 174.685,130.448 176.5,133.5C 177.313,137.162 177.979,140.828 178.5,144.5C 177.833,144.5 177.167,144.5 176.5,144.5C 173.359,143.679 170.025,143.179 166.5,143C 164.393,141.736 163.393,139.903 163.5,137.5C 164.428,134.546 165.261,131.546 166,128.5C 168.205,127.588 170.038,126.255 171.5,124.5 Z"/></g>
<g><path style="opacity:1" fill="#7d7076" d="M 136.5,133.5 C 136.784,135.415 136.451,137.081 135.5,138.5C 135.649,137.448 135.483,136.448 135,135.5C 134.333,134.167 133.667,134.167 133,135.5C 132.333,132.5 132.333,129.5 133,126.5C 133.414,126.043 133.914,125.709 134.5,125.5C 135.168,128.306 135.834,130.972 136.5,133.5 Z"/></g>
<g><path style="opacity:1" fill="#fbfafb" d="M 137.5,130.5 C 141.355,133.596 145.688,135.93 150.5,137.5C 150.661,142.115 148.661,145.115 144.5,146.5C 141.254,147.054 138.254,148.054 135.5,149.5C 134.5,149.5 133.5,149.5 132.5,149.5C 133.247,146.101 134.247,142.767 135.5,139.5C 135.5,139.167 135.5,138.833 135.5,138.5C 136.451,137.081 136.784,135.415 136.5,133.5C 137.11,132.609 137.443,131.609 137.5,130.5 Z"/></g>
<g><path style="opacity:1" fill="#a63344" d="M 149.5,132.5 C 151.693,131.203 154.027,131.203 156.5,132.5C 154.051,135.048 151.718,135.048 149.5,132.5 Z"/></g>
<g><path style="opacity:1" fill="#c39821" d="M 92.5,174.5 C 91.3478,175.625 90.3478,175.625 89.5,174.5C 89.9382,174.565 90.2716,174.399 90.5,174C 89.2567,172.846 88.2567,171.512 87.5,170C 80.5879,168.409 75.4213,164.576 72,158.5C 71.5065,156.866 71.3398,155.199 71.5,153.5C 75.5814,154.4 79.0814,156.4 82,159.5C 82.1667,158.833 82.3333,158.167 82.5,157.5C 80.4291,152.032 76.9291,147.698 72,144.5C 70,140.5 68,136.5 66,132.5C 65.1859,130.098 65.3526,127.765 66.5,125.5C 68.4829,126.982 70.3163,128.649 72,130.5C 72.2282,125.126 71.7282,119.793 70.5,114.5C 70.9562,110.298 72.1228,106.298 74,102.5C 76.2948,108.997 76.9615,115.664 76,122.5C 73.1662,126.665 72.8328,130.998 75,135.5C 75.5592,128.153 77.8925,121.487 82,115.5C 82.3333,115.833 82.6667,116.167 83,116.5C 83.2627,124.691 81.4294,132.357 77.5,139.5C 78.0149,142.931 78.8482,146.264 80,149.5C 81.306,136.817 83.6393,136.484 87,148.5C 87.781,153.554 87.6143,158.554 86.5,163.5C 88.3546,167.31 90.3546,170.977 92.5,174.5 Z"/></g>
<g><path style="opacity:1" fill="#504249" d="M 142.5,90.5 C 143.552,90.3505 144.552,90.5172 145.5,91C 143,93.5 140.5,96 138,98.5C 133.15,104.304 132.316,110.637 135.5,117.5C 136.701,111.029 138.367,104.696 140.5,98.5C 142.069,99.714 142.902,101.381 143,103.5C 143.458,99.352 144.958,95.6853 147.5,92.5C 148.092,95.6514 148.426,98.6514 148.5,101.5C 147.567,107.694 144.733,113.027 140,117.5C 138.101,121.621 137.268,125.954 137.5,130.5C 137.443,131.609 137.11,132.609 136.5,133.5C 135.834,130.972 135.168,128.306 134.5,125.5C 133.914,125.709 133.414,126.043 133,126.5C 132.333,129.5 132.333,132.5 133,135.5C 133.667,134.167 134.333,134.167 135,135.5C 135.483,136.448 135.649,137.448 135.5,138.5C 135.5,138.833 135.5,139.167 135.5,139.5C 134.417,139.461 133.417,139.127 132.5,138.5C 131.643,139.736 130.977,141.069 130.5,142.5C 132.005,143.842 132.672,145.508 132.5,147.5C 131.5,147.5 130.5,147.5 129.5,147.5C 128.974,142.588 129.641,137.922 131.5,133.5C 131.006,131.974 130.339,130.641 129.5,129.5C 129.34,127.801 129.506,126.134 130,124.5C 131.236,123.601 132.07,122.434 132.5,121C 128.712,110.773 130.379,101.606 137.5,93.5C 138.94,92.0476 140.606,91.0476 142.5,90.5 Z"/></g>
<g><path style="opacity:1" fill="#6b5d64" d="M 178.5,113.5 C 178.5,113.833 178.5,114.167 178.5,114.5C 178.022,120.222 178.022,125.888 178.5,131.5C 179.515,128.724 180.515,126.057 181.5,123.5C 181.027,127.771 181.694,131.938 183.5,136C 183.554,138.873 182.888,141.54 181.5,144C 182.094,144.464 182.761,144.631 183.5,144.5C 183.5,144.833 183.5,145.167 183.5,145.5C 181.784,145.371 180.117,145.038 178.5,144.5C 177.979,140.828 177.313,137.162 176.5,133.5C 174.685,130.448 173.018,127.448 171.5,124.5C 170.27,122.703 169.604,120.703 169.5,118.5C 171.55,120.237 173.383,122.237 175,124.5C 176.593,120.839 177.759,117.172 178.5,113.5 Z"/></g>
<g><path style="opacity:1" fill="#e8b2b3" d="M 163.5,137.5 C 163.393,139.903 164.393,141.736 166.5,143C 170.025,143.179 173.359,143.679 176.5,144.5C 166.418,147.509 156.084,148.675 145.5,148C 144.944,147.617 144.611,147.117 144.5,146.5C 148.661,145.115 150.661,142.115 150.5,137.5C 154.977,138.412 159.311,138.412 163.5,137.5 Z"/></g>
<g><path style="opacity:1" fill="#675a61" d="M 129.5,129.5 C 130.339,130.641 131.006,131.974 131.5,133.5C 129.641,137.922 128.974,142.588 129.5,147.5C 130.5,147.5 131.5,147.5 132.5,147.5C 132.672,145.508 132.005,143.842 130.5,142.5C 130.977,141.069 131.643,139.736 132.5,138.5C 133.417,139.127 134.417,139.461 135.5,139.5C 134.247,142.767 133.247,146.101 132.5,149.5C 132.196,151.796 131.196,152.129 129.5,150.5C 128.425,148.843 127.758,147.009 127.5,145C 128.277,139.839 128.944,134.673 129.5,129.5 Z"/></g>
<g><path style="opacity:1" fill="#66899d" d="M 189.5,145.5 C 193.229,146.899 195.562,149.565 196.5,153.5C 196.631,154.239 196.464,154.906 196,155.5C 195.275,153.842 194.108,153.342 192.5,154C 191.391,155.876 190.391,157.709 189.5,159.5C 189.5,157.5 189.5,155.5 189.5,153.5C 188.178,153.33 187.011,153.663 186,154.5C 185.833,153.833 185.667,153.167 185.5,152.5C 186.892,150.131 188.225,147.797 189.5,145.5 Z"/></g>
<g><path style="opacity:1" fill="#b2e0e9" d="M 289.5,93.5 C 294.1,105.244 297.433,117.244 299.5,129.5C 299.5,142.833 299.5,156.167 299.5,169.5C 298.509,174.048 297.509,178.715 296.5,183.5C 295.265,183.279 294.265,182.612 293.5,181.5C 292.479,183.619 290.979,185.286 289,186.5C 286.356,184.903 286.523,183.069 289.5,181C 288.397,178.031 287.064,177.864 285.5,180.5C 284.288,178.159 284.622,175.993 286.5,174C 285.23,173.1 284.23,171.934 283.5,170.5C 282.548,172.045 282.215,173.712 282.5,175.5C 276.939,175.437 272.939,178.27 270.5,184C 271.448,184.483 272.448,184.649 273.5,184.5C 273.881,186.942 273.214,187.609 271.5,186.5C 270.5,187 269.5,187.5 268.5,188C 267.167,188.667 267.167,189.333 268.5,190C 265.261,192.117 262.261,191.784 259.5,189C 260.357,188.311 261.023,187.478 261.5,186.5C 260.127,184.51 259.127,182.343 258.5,180C 259.623,178.956 260.956,178.29 262.5,178C 261.929,176.795 261.262,175.628 260.5,174.5C 258.441,175.567 256.608,176.9 255,178.5C 252.653,173.732 254.153,171.898 259.5,173C 260.364,170.438 262.031,168.605 264.5,167.5C 263.167,166.833 261.833,166.167 260.5,165.5C 261.531,164.3 262.365,162.966 263,161.5C 263.317,163.301 263.984,163.634 265,162.5C 265.483,161.552 265.649,160.552 265.5,159.5C 262.52,159.759 260.687,158.426 260,155.5C 257.86,157.672 255.526,159.672 253,161.5C 251.983,158.972 250.816,158.972 249.5,161.5C 248.749,160.624 248.249,159.624 248,158.5C 245.745,159.761 243.578,161.094 241.5,162.5C 242.764,153.488 242.764,144.488 241.5,135.5C 244.344,136.172 246.844,137.505 249,139.5C 250.751,138.191 252.251,138.525 253.5,140.5C 254.598,139.385 255.765,139.385 257,140.5C 257.772,140.355 258.439,140.022 259,139.5C 258.903,135.626 260.736,133.459 264.5,133C 264.043,132.586 263.709,132.086 263.5,131.5C 264.955,130.255 266.289,130.422 267.5,132C 266.549,132.718 266.383,133.551 267,134.5C 269.148,133.023 270.482,131.023 271,128.5C 271.893,129.711 272.726,129.711 273.5,128.5C 269.778,126.356 266.112,124.023 262.5,121.5C 264.543,119.539 263.877,118.039 260.5,117C 261.833,116.667 263.167,116.333 264.5,116C 263.167,115 263.167,114 264.5,113C 264,112.5 263.5,112 263,111.5C 260.989,113.932 259.489,113.432 258.5,110C 259.648,108.274 260.815,108.441 262,110.5C 262.249,109.376 262.749,108.376 263.5,107.5C 267.89,103.962 272.057,104.296 276,108.5C 277.241,104.125 279.075,99.6249 281.5,95C 281.167,94.6667 280.833,94.3333 280.5,94C 282.165,93.2115 283.831,92.8782 285.5,93C 285.101,94.2941 285.101,95.7941 285.5,97.5C 287.397,96.6319 288.73,95.2986 289.5,93.5 Z"/></g>
<g><path style="opacity:1" fill="#51778f" d="M 132.5,149.5 C 133.5,149.5 134.5,149.5 135.5,149.5C 136.239,149.369 136.906,149.536 137.5,150C 135.083,151.663 133.25,153.829 132,156.5C 131.15,157.424 130.15,157.424 129,156.5C 127.351,157.786 126.185,159.453 125.5,161.5C 124.675,162.386 123.675,162.719 122.5,162.5C 122.567,163.959 122.234,165.292 121.5,166.5C 120.695,169.478 120.362,172.478 120.5,175.5C 119.143,173.814 117.81,172.148 116.5,170.5C 117.712,165.712 119.545,161.046 122,156.5C 124.688,154.636 127.188,152.636 129.5,150.5C 131.196,152.129 132.196,151.796 132.5,149.5 Z"/></g>
<g><path style="opacity:1" fill="#b2c8d4" d="M 176.5,156.5 C 178.222,160.616 178.722,164.95 178,169.5C 177.667,169.833 177.333,170.167 177,170.5C 176.998,167.949 176.164,165.949 174.5,164.5C 174.773,162.549 174.107,161.049 172.5,160C 167.512,159.258 162.678,159.758 158,161.5C 157.505,159.527 157.338,157.527 157.5,155.5C 152.888,154.687 148.388,155.354 144,157.5C 140.877,161.462 137.043,164.462 132.5,166.5C 130.781,170.981 131.781,174.648 135.5,177.5C 134.075,178.922 133.075,180.589 132.5,182.5C 131.699,184.042 131.366,185.708 131.5,187.5C 129.194,187.007 126.861,186.674 124.5,186.5C 126.042,185.837 127.709,185.17 129.5,184.5C 130.125,181.815 131.125,179.315 132.5,177C 129.52,171.434 129.354,165.934 132,160.5C 133.811,156.345 136.977,154.345 141.5,154.5C 145.749,154.397 149.916,153.73 154,152.5C 156.794,152.604 159.127,153.604 161,155.5C 162.011,154.663 163.178,154.33 164.5,154.5C 164.782,159.579 165.782,159.746 167.5,155C 168.766,154.691 169.933,154.191 171,153.5C 172.113,154.711 173.28,154.711 174.5,153.5C 175.176,154.602 175.842,155.602 176.5,156.5 Z"/></g>
<g><path style="opacity:1" fill="#8f864b" d="M 116.5,170.5 C 117.81,172.148 119.143,173.814 120.5,175.5C 120.362,172.478 120.695,169.478 121.5,166.5C 122.496,166.414 123.329,166.748 124,167.5C 126.151,172.13 125.818,176.463 123,180.5C 121.266,178.549 119.099,177.549 116.5,177.5C 112.883,175.883 110.216,173.216 108.5,169.5C 108.977,168.522 109.643,167.689 110.5,167C 105.506,165.348 101.673,162.181 99,157.5C 98.5065,155.866 98.3398,154.199 98.5,152.5C 100.929,152.585 102.929,153.585 104.5,155.5C 104.833,155.167 105.167,154.833 105.5,154.5C 101.266,150.367 98.9331,145.367 98.5,139.5C 106.135,141.766 108.801,146.766 106.5,154.5C 107.326,157.49 108.159,160.49 109,163.5C 110.154,164.743 111.488,165.743 113,166.5C 113.167,166 113.333,165.5 113.5,165C 110.035,161.249 108.702,156.749 109.5,151.5C 112.642,151.799 114.809,153.466 116,156.5C 115.807,161.245 115.974,165.912 116.5,170.5 Z"/></g>
<g><path style="opacity:1" fill="#bc8f1a" d="M 204.5,177.5 C 203.341,175.75 201.674,174.75 199.5,174.5C 201.722,171.729 203.555,172.062 205,175.5C 206.05,170.236 208.55,165.736 212.5,162C 214.025,160.991 215.692,160.491 217.5,160.5C 217.54,163.425 216.707,166.091 215,168.5C 211.376,171.389 207.876,174.389 204.5,177.5 Z"/></g>
<g><path style="opacity:1" fill="#f0f2f5" d="M 174.5,164.5 C 172.766,166.09 171.6,168.09 171,170.5C 170.446,176.188 170.613,181.855 171.5,187.5C 170.432,188.434 169.099,188.768 167.5,188.5C 167.66,186.801 167.494,185.134 167,183.5C 164.57,180.899 161.736,178.899 158.5,177.5C 157.347,175.07 156.347,175.07 155.5,177.5C 154.573,181.377 153.573,185.21 152.5,189C 152.514,190.385 152.848,191.551 153.5,192.5C 153.5,193.5 153.5,194.5 153.5,195.5C 151.5,195.833 149.5,196.167 147.5,196.5C 150.133,195.34 150.966,193.34 150,190.5C 147.415,188.265 144.582,187.931 141.5,189.5C 142.492,186.221 142.659,182.888 142,179.5C 140.41,176.609 138.244,175.942 135.5,177.5C 131.781,174.648 130.781,170.981 132.5,166.5C 137.043,164.462 140.877,161.462 144,157.5C 148.388,155.354 152.888,154.687 157.5,155.5C 157.338,157.527 157.505,159.527 158,161.5C 162.678,159.758 167.512,159.258 172.5,160C 174.107,161.049 174.773,162.549 174.5,164.5 Z"/></g>
<g><path style="opacity:1" fill="#b7cbd5" d="M 196.5,168.5 C 195.674,172.136 195.008,175.803 194.5,179.5C 195.987,182.754 195.654,185.754 193.5,188.5C 192.776,186.782 192.109,184.948 191.5,183C 189.711,182.48 188.044,182.813 186.5,184C 183.435,187.576 181.768,191.743 181.5,196.5C 179.21,197.467 177.21,198.8 175.5,200.5C 174.711,200.217 174.044,199.717 173.5,199C 178.423,195.341 180.59,190.841 180,185.5C 177.953,186.609 175.787,187.276 173.5,187.5C 176.246,184.513 179.413,181.847 183,179.5C 183.847,177.807 184.68,176.14 185.5,174.5C 187.908,172.445 188.575,169.945 187.5,167C 188.667,165.833 189.833,164.667 191,163.5C 191.333,164.5 191.667,165.5 192,166.5C 192.98,164.941 193.813,163.274 194.5,161.5C 195.168,163.969 195.835,166.302 196.5,168.5 Z"/></g>
<g><path style="opacity:1" fill="#7795a7" d="M 176.5,144.5 C 177.167,144.5 177.833,144.5 178.5,144.5C 180.117,145.038 181.784,145.371 183.5,145.5C 184.283,152.597 183.116,159.264 180,165.5C 179.374,161.215 179.874,157.048 181.5,153C 181.576,150.244 180.243,149.077 177.5,149.5C 176.584,149.018 175.584,148.685 174.5,148.5C 164.892,149.923 155.225,150.756 145.5,151C 143.907,151.949 142.574,153.115 141.5,154.5C 136.977,154.345 133.811,156.345 132,160.5C 129.354,165.934 129.52,171.434 132.5,177C 131.125,179.315 130.125,181.815 129.5,184.5C 127.709,185.17 126.042,185.837 124.5,186.5C 123.609,187.11 122.609,187.443 121.5,187.5C 121.824,183.463 120.158,180.797 116.5,179.5C 116.5,178.833 116.5,178.167 116.5,177.5C 119.099,177.549 121.266,178.549 123,180.5C 125.818,176.463 126.151,172.13 124,167.5C 123.329,166.748 122.496,166.414 121.5,166.5C 122.234,165.292 122.567,163.959 122.5,162.5C 123.675,162.719 124.675,162.386 125.5,161.5C 126.185,159.453 127.351,157.786 129,156.5C 130.15,157.424 131.15,157.424 132,156.5C 133.25,153.829 135.083,151.663 137.5,150C 136.906,149.536 136.239,149.369 135.5,149.5C 138.254,148.054 141.254,147.054 144.5,146.5C 144.611,147.117 144.944,147.617 145.5,148C 156.084,148.675 166.418,147.509 176.5,144.5 Z"/></g>
<g><path style="opacity:1" fill="#89a9ba" d="M 177.5,149.5 C 176.631,151.717 176.298,154.05 176.5,156.5C 175.842,155.602 175.176,154.602 174.5,153.5C 173.28,154.711 172.113,154.711 171,153.5C 169.933,154.191 168.766,154.691 167.5,155C 165.782,159.746 164.782,159.579 164.5,154.5C 163.178,154.33 162.011,154.663 161,155.5C 159.127,153.604 156.794,152.604 154,152.5C 149.916,153.73 145.749,154.397 141.5,154.5C 142.574,153.115 143.907,151.949 145.5,151C 155.225,150.756 164.892,149.923 174.5,148.5C 175.584,148.685 176.584,149.018 177.5,149.5 Z"/></g>
<g><path style="opacity:1" fill="#98b3c1" d="M 196.5,153.5 C 197.751,158.369 197.751,163.369 196.5,168.5C 195.835,166.302 195.168,163.969 194.5,161.5C 193.813,163.274 192.98,164.941 192,166.5C 191.667,165.5 191.333,164.5 191,163.5C 189.833,164.667 188.667,165.833 187.5,167C 188.575,169.945 187.908,172.445 185.5,174.5C 185.5,173.167 185.5,171.833 185.5,170.5C 182.386,171.091 179.886,172.758 178,175.5C 178.062,172.159 179.229,169.159 181.5,166.5C 184.804,164.86 187.471,162.527 189.5,159.5C 190.391,157.709 191.391,155.876 192.5,154C 194.108,153.342 195.275,153.842 196,155.5C 196.464,154.906 196.631,154.239 196.5,153.5 Z"/></g>
<g><path style="opacity:1" fill="#c4e9ef" d="M 21.5,70.5 C 26.7899,73.7423 26.7899,76.0756 21.5,77.5C 22.1925,78.5178 22.8592,79.5178 23.5,80.5C 22.3744,81.8583 22.3744,83.1916 23.5,84.5C 25.5286,85.8435 27.5286,87.1769 29.5,88.5C 29.5,90.1667 29.5,91.8333 29.5,93.5C 30.5,93.5 31.5,93.5 32.5,93.5C 32.5433,96.0878 33.5433,98.2544 35.5,100C 34.7877,101.425 34.621,102.925 35,104.5C 31.952,102.134 28.7853,100.801 25.5,100.5C 23.751,102.516 21.751,104.182 19.5,105.5C 21.5,106.333 23.5,107.167 25.5,108C 24.1118,108.889 24.2785,109.389 26,109.5C 28.411,107.847 29.5777,108.513 29.5,111.5C 31.674,111.92 33.674,111.92 35.5,111.5C 36.2298,112.934 37.2298,114.1 38.5,115C 37.8333,115.667 37.1667,116.333 36.5,117C 38.1068,117.115 39.6068,116.615 41,115.5C 42.2737,116.535 43.4404,117.702 44.5,119C 42.9238,119.44 41.5904,120.273 40.5,121.5C 38.8273,119.914 36.8273,119.247 34.5,119.5C 33.6525,121.481 33.1525,123.481 33,125.5C 33.3333,125.833 33.6667,126.167 34,126.5C 34.6995,124.968 35.8662,123.968 37.5,123.5C 38.7202,124.711 39.8869,124.711 41,123.5C 41.6172,124.449 41.4506,125.282 40.5,126C 43.2993,126.439 44.2993,127.772 43.5,130C 45.7671,131.081 45.9338,132.581 44,134.5C 43.3261,133.422 42.3261,132.755 41,132.5C 38.6381,133.629 36.3047,133.629 34,132.5C 32.7147,132.95 31.548,133.617 30.5,134.5C 29.1537,132.987 27.6537,131.653 26,130.5C 24.6364,132.603 25.4698,134.103 28.5,135C 28.0426,135.414 27.7093,135.914 27.5,136.5C 29.0064,137.747 30.5064,137.747 32,136.5C 32.49,137.793 32.6567,139.127 32.5,140.5C 35.1873,140.664 37.854,140.497 40.5,140C 41.8491,139.228 42.6824,138.061 43,136.5C 45.4983,139.101 44.9983,140.435 41.5,140.5C 41.3505,141.552 41.5172,142.552 42,143.5C 43.3561,142.62 44.8561,142.286 46.5,142.5C 47.0339,148.966 50.3672,151.299 56.5,149.5C 57.1085,160.425 59.1085,171.092 62.5,181.5C 60.2728,179.069 58.1062,179.069 56,181.5C 54.2949,180.237 52.6282,179.903 51,180.5C 49.6801,178.346 47.8468,176.846 45.5,176C 46.3128,174.686 47.3128,173.519 48.5,172.5C 47.4783,171.646 46.6449,170.646 46,169.5C 44.9264,170.618 43.7598,171.618 42.5,172.5C 45.1306,174.005 44.7973,174.671 41.5,174.5C 41.6399,176.124 40.9733,177.29 39.5,178C 40.1667,179 40.8333,180 41.5,181C 43.4025,181.199 44.9025,182.033 46,183.5C 47.0437,182.377 47.7104,181.044 48,179.5C 49.1667,181 50.3333,182.5 51.5,184C 51,184.5 50.5,185 50,185.5C 47.5991,184.398 45.0991,184.231 42.5,185C 43.6226,186.044 44.9559,186.71 46.5,187C 45.3463,187.914 45.513,188.747 47,189.5C 47.3333,188.5 47.6667,187.5 48,186.5C 49.5292,187.729 50.6959,189.229 51.5,191C 50.2559,191.456 49.4226,190.956 49,189.5C 48.6667,190.5 48.3333,191.5 48,192.5C 42.5138,190.85 40.0138,187.184 40.5,181.5C 39.1779,181.33 38.0113,181.663 37,182.5C 36.6924,181.692 36.1924,181.025 35.5,180.5C 34.7582,182.35 33.7582,183.016 32.5,182.5C 33.472,184.305 34.6387,185.972 36,187.5C 36.5354,185.729 37.3687,185.396 38.5,186.5C 41.3755,191.455 41.0421,192.122 37.5,188.5C 36.7176,190.329 37.3843,191.829 39.5,193C 37.6133,193.163 36.1133,192.329 35,190.5C 34.1932,194.449 33.6932,194.449 33.5,190.5C 32.1779,190.67 31.0113,190.337 30,189.5C 27.2626,192.05 24.0959,194.05 20.5,195.5C 18.5967,195.306 16.7633,195.306 15,195.5C 14.5172,196.448 14.3505,197.448 14.5,198.5C 13.2482,199.968 11.2482,200.968 8.5,201.5C 4.25224,191.175 1.25224,180.508 -0.5,169.5C -0.5,156.167 -0.5,142.833 -0.5,129.5C 2.61064,108.275 9.94397,88.6085 21.5,70.5 Z"/></g>
<g><path style="opacity:1" fill="#a67918" d="M 105.5,185.5 C 104.295,186.686 102.961,186.686 101.5,185.5C 100.375,183.871 99.0414,182.371 97.5,181C 92.0541,180.899 86.7207,180.232 81.5,179C 79.6487,177.316 77.982,175.483 76.5,173.5C 80.9428,172.263 85.2761,172.597 89.5,174.5C 90.3478,175.625 91.3478,175.625 92.5,174.5C 93.1405,176.332 94.1405,176.665 95.5,175.5C 90.9179,169.775 90.4179,163.775 94,157.5C 99.4539,164.649 101.454,172.649 100,181.5C 101.992,182.665 103.825,183.998 105.5,185.5 Z"/></g>
<g><path style="opacity:1" fill="#ea869e" d="M 141.5,189.5 C 139.986,186.905 137.652,185.571 134.5,185.5C 134.657,184.127 134.49,182.793 134,181.5C 133.617,182.056 133.117,182.389 132.5,182.5C 133.075,180.589 134.075,178.922 135.5,177.5C 138.244,175.942 140.41,176.609 142,179.5C 142.659,182.888 142.492,186.221 141.5,189.5 Z"/></g>
<g><path style="opacity:1" fill="#7a7139" d="M 189.5,145.5 C 188.225,147.797 186.892,150.131 185.5,152.5C 185.667,153.167 185.833,153.833 186,154.5C 187.011,153.663 188.178,153.33 189.5,153.5C 189.5,155.5 189.5,157.5 189.5,159.5C 187.471,162.527 184.804,164.86 181.5,166.5C 179.229,169.159 178.062,172.159 178,175.5C 179.886,172.758 182.386,171.091 185.5,170.5C 185.5,171.833 185.5,173.167 185.5,174.5C 184.68,176.14 183.847,177.807 183,179.5C 179.413,181.847 176.246,184.513 173.5,187.5C 172.833,187.5 172.167,187.5 171.5,187.5C 170.613,181.855 170.446,176.188 171,170.5C 171.6,168.09 172.766,166.09 174.5,164.5C 176.164,165.949 176.998,167.949 177,170.5C 177.333,170.167 177.667,169.833 178,169.5C 178.722,164.95 178.222,160.616 176.5,156.5C 176.298,154.05 176.631,151.717 177.5,149.5C 180.243,149.077 181.576,150.244 181.5,153C 179.874,157.048 179.374,161.215 180,165.5C 183.116,159.264 184.283,152.597 183.5,145.5C 183.5,145.167 183.5,144.833 183.5,144.5C 184.594,142.641 185.427,140.641 186,138.5C 187.011,137.663 188.178,137.33 189.5,137.5C 189.5,140.167 189.5,142.833 189.5,145.5 Z"/></g>
<g><path style="opacity:1" fill="#4a4212" d="M 116.5,179.5 C 120.158,180.797 121.824,183.463 121.5,187.5C 121.5,190.5 121.5,193.5 121.5,196.5C 121.737,197.791 121.404,198.791 120.5,199.5C 119.009,196.743 117.676,193.743 116.5,190.5C 115.698,187.551 115.364,184.551 115.5,181.5C 115.328,180.508 115.662,179.842 116.5,179.5 Z"/></g>
<g><path style="opacity:1" fill="#94670c" d="M 202.5,190.5 C 199.813,190.659 197.48,189.825 195.5,188C 196.571,187.148 197.571,186.315 198.5,185.5C 201.889,183.571 205.389,183.238 209,184.5C 208.397,187.93 206.231,189.93 202.5,190.5 Z"/></g>
<g><path style="opacity:1" fill="#ee7c68" d="M 158.5,177.5 C 157.252,178.334 156.585,179.667 156.5,181.5C 157.37,184.186 157.87,186.853 158,189.5C 157.323,191.689 156.156,192.022 154.5,190.5C 153.702,190.957 153.369,191.624 153.5,192.5C 152.848,191.551 152.514,190.385 152.5,189C 153.573,185.21 154.573,181.377 155.5,177.5C 156.347,175.07 157.347,175.07 158.5,177.5 Z"/></g>
<g><path style="opacity:1" fill="#ec5e42" d="M 158.5,177.5 C 161.736,178.899 164.57,180.899 167,183.5C 167.494,185.134 167.66,186.801 167.5,188.5C 169.099,188.768 170.432,188.434 171.5,187.5C 172.167,187.5 172.833,187.5 173.5,187.5C 175.787,187.276 177.953,186.609 180,185.5C 180.59,190.841 178.423,195.341 173.5,199C 174.044,199.717 174.711,200.217 175.5,200.5C 175.328,201.492 175.662,202.158 176.5,202.5C 177.11,203.391 177.443,204.391 177.5,205.5C 177.739,207.467 177.406,209.301 176.5,211C 173.802,211.815 171.468,211.315 169.5,209.5C 168.998,207.915 167.998,207.415 166.5,208C 165.195,210.787 163.528,213.287 161.5,215.5C 160.167,215.5 158.833,215.5 157.5,215.5C 156.518,211.873 156.351,208.207 157,204.5C 156.535,205.931 155.701,207.097 154.5,208C 151.02,209.103 147.687,210.269 144.5,211.5C 142.659,210.598 141.326,209.264 140.5,207.5C 149.606,208.435 151.606,205.269 146.5,198C 146.57,197.235 146.903,196.735 147.5,196.5C 149.5,196.167 151.5,195.833 153.5,195.5C 153.5,194.5 153.5,193.5 153.5,192.5C 153.369,191.624 153.702,190.957 154.5,190.5C 156.156,192.022 157.323,191.689 158,189.5C 157.87,186.853 157.37,184.186 156.5,181.5C 156.585,179.667 157.252,178.334 158.5,177.5 Z"/></g>
<g><path style="opacity:1" fill="#ae821e" d="M 198.5,185.5 C 197.571,186.315 196.571,187.148 195.5,188C 197.48,189.825 199.813,190.659 202.5,190.5C 200.274,191.756 197.941,191.756 195.5,190.5C 194.833,189.833 194.167,189.167 193.5,188.5C 195.654,185.754 195.987,182.754 194.5,179.5C 195.806,177.527 197.473,175.861 199.5,174.5C 201.674,174.75 203.341,175.75 204.5,177.5C 203.15,178.65 203.316,179.317 205,179.5C 208.947,174.28 214.114,171.28 220.5,170.5C 218.626,178.6 213.626,181.933 205.5,180.5C 202.133,180.786 199.466,182.286 197.5,185C 197.728,185.399 198.062,185.565 198.5,185.5 Z"/></g>
<g><path style="opacity:1" fill="#e36986" d="M 141.5,189.5 C 144.582,187.931 147.415,188.265 150,190.5C 150.966,193.34 150.133,195.34 147.5,196.5C 146.903,196.735 146.57,197.235 146.5,198C 151.606,205.269 149.606,208.435 140.5,207.5C 140.44,206.957 140.107,206.624 139.5,206.5C 137.815,208.571 136.148,210.571 134.5,212.5C 127.987,213.596 124.654,210.929 124.5,204.5C 124.5,204.167 124.5,203.833 124.5,203.5C 125.267,202.828 125.934,201.995 126.5,201C 124.963,199.293 123.296,197.793 121.5,196.5C 121.5,193.5 121.5,190.5 121.5,187.5C 122.609,187.443 123.609,187.11 124.5,186.5C 126.861,186.674 129.194,187.007 131.5,187.5C 131.366,185.708 131.699,184.042 132.5,182.5C 133.117,182.389 133.617,182.056 134,181.5C 134.49,182.793 134.657,184.127 134.5,185.5C 137.652,185.571 139.986,186.905 141.5,189.5 Z"/></g>
<g><path style="opacity:1" fill="#956c1f" d="M 193.5,188.5 C 194.167,189.167 194.833,189.833 195.5,190.5C 192.642,190.595 190.309,191.762 188.5,194C 192.108,194.026 195.442,194.859 198.5,196.5C 196.853,198.326 194.853,199.66 192.5,200.5C 190.833,200.5 189.167,200.5 187.5,200.5C 185.634,199.986 183.8,199.32 182,198.5C 179.85,199.483 178.017,200.816 176.5,202.5C 175.662,202.158 175.328,201.492 175.5,200.5C 177.21,198.8 179.21,197.467 181.5,196.5C 181.768,191.743 183.435,187.576 186.5,184C 188.044,182.813 189.711,182.48 191.5,183C 192.109,184.948 192.776,186.782 193.5,188.5 Z"/></g>
<g><path style="opacity:1" fill="#81732c" d="M 115.5,181.5 C 115.364,184.551 115.698,187.551 116.5,190.5C 117.676,193.743 119.009,196.743 120.5,199.5C 120.5,200.5 120.5,201.5 120.5,202.5C 117.813,202.664 115.146,202.497 112.5,202C 109.478,200.489 106.478,198.989 103.5,197.5C 100.297,193.974 97.964,189.974 96.5,185.5C 98.1667,185.5 99.8333,185.5 101.5,185.5C 102.961,186.686 104.295,186.686 105.5,185.5C 104.676,182.236 104.342,178.902 104.5,175.5C 108.454,177.084 111.62,179.75 114,183.5C 114.278,182.584 114.778,181.918 115.5,181.5 Z"/></g>
<g><path style="opacity:1" fill="#712c2f" d="M 162.5,196.5 C 168.29,196.024 168.79,197.024 164,199.5C 161.422,199.318 160.922,198.318 162.5,196.5 Z"/></g>
<g><path style="opacity:1" fill="#f3ecea" d="M 121.5,196.5 C 123.296,197.793 124.963,199.293 126.5,201C 125.934,201.995 125.267,202.828 124.5,203.5C 123.432,202.566 122.099,202.232 120.5,202.5C 120.5,201.5 120.5,200.5 120.5,199.5C 121.404,198.791 121.737,197.791 121.5,196.5 Z"/></g>
<g><path style="opacity:1" fill="#752e3f" d="M 133.5,194.5 C 136.955,195.128 138.122,197.128 137,200.5C 135.175,199.897 133.341,199.23 131.5,198.5C 132.18,197.14 132.847,195.807 133.5,194.5 Z"/></g>
<g><path style="opacity:1" fill="#faf8f5" d="M 187.5,200.5 C 184.636,203.014 181.302,204.68 177.5,205.5C 177.443,204.391 177.11,203.391 176.5,202.5C 178.017,200.816 179.85,199.483 182,198.5C 183.8,199.32 185.634,199.986 187.5,200.5 Z"/></g>
<g><path style="opacity:1" fill="#f0ad9f" d="M 170.5,201.5 C 172.982,202.804 174.149,204.804 174,207.5C 172.558,205.609 171.391,203.609 170.5,201.5 Z"/></g>
<g><path style="opacity:1" fill="#feede8" d="M 157.5,215.5 C 157.167,215.5 156.833,215.5 156.5,215.5C 154.512,215.173 152.512,214.84 150.5,214.5C 148.307,214.719 146.307,215.385 144.5,216.5C 144.5,214.833 144.5,213.167 144.5,211.5C 147.687,210.269 151.02,209.103 154.5,208C 155.701,207.097 156.535,205.931 157,204.5C 156.351,208.207 156.518,211.873 157.5,215.5 Z"/></g>
<g><path style="opacity:1" fill="#887d3e" d="M 191.5,216.5 C 186.015,217.652 180.349,217.818 174.5,217C 176.089,215.255 178.089,214.088 180.5,213.5C 179.223,212.078 179.557,211.078 181.5,210.5C 182.251,211.573 183.251,211.74 184.5,211C 189.198,208.651 193.864,206.318 198.5,204C 205.746,202.554 207.08,204.554 202.5,210C 198.264,212.403 194.597,214.57 191.5,216.5 Z"/></g>
<g><path style="opacity:1" fill="#fb774a" d="M 103.5,197.5 C 106.478,198.989 109.478,200.489 112.5,202C 115.146,202.497 117.813,202.664 120.5,202.5C 122.099,202.232 123.432,202.566 124.5,203.5C 124.5,203.833 124.5,204.167 124.5,204.5C 123.549,206.118 122.216,207.451 120.5,208.5C 124.672,211.848 126.339,216.181 125.5,221.5C 121.594,221.533 118.26,220.199 115.5,217.5C 114.388,219.419 113.054,221.086 111.5,222.5C 110.661,221.359 109.994,220.026 109.5,218.5C 110.325,217.614 111.325,217.281 112.5,217.5C 113.449,215.263 114.116,212.929 114.5,210.5C 113.738,208.738 112.404,207.738 110.5,207.5C 109.778,207.918 109.278,208.584 109,209.5C 107.274,208.424 105.441,208.257 103.5,209C 102.599,211.471 101.599,213.971 100.5,216.5C 100.312,213.44 99.9791,210.44 99.5,207.5C 98.2101,206.942 97.3768,205.942 97,204.5C 96.3425,201.715 95.5091,199.049 94.5,196.5C 97.4552,197.159 100.455,197.492 103.5,197.5 Z"/></g>
<g><path style="opacity:1" fill="#8a474c" d="M 110.5,207.5 C 112.404,207.738 113.738,208.738 114.5,210.5C 112.806,212.438 110.806,212.771 108.5,211.5C 109.853,210.476 110.52,209.143 110.5,207.5 Z"/></g>
<g><path style="opacity:1" fill="#fa8963" d="M 99.5,207.5 C 99.9791,210.44 100.312,213.44 100.5,216.5C 101.599,213.971 102.599,211.471 103.5,209C 105.441,208.257 107.274,208.424 109,209.5C 109.278,208.584 109.778,207.918 110.5,207.5C 110.52,209.143 109.853,210.476 108.5,211.5C 110.806,212.771 112.806,212.438 114.5,210.5C 114.116,212.929 113.449,215.263 112.5,217.5C 111.325,217.281 110.325,217.614 109.5,218.5C 109.994,220.026 110.661,221.359 111.5,222.5C 109.562,224.163 107.228,224.829 104.5,224.5C 104.543,221.413 104.71,218.413 105,215.5C 101.191,218.118 97.3574,218.118 93.5,215.5C 95.9092,213.098 97.9092,210.431 99.5,207.5 Z"/></g>
<g><path style="opacity:1" fill="#e4cfc2" d="M 169.5,209.5 C 167.557,212.471 164.891,214.471 161.5,215.5C 163.528,213.287 165.195,210.787 166.5,208C 167.998,207.415 168.998,207.915 169.5,209.5 Z"/></g>
<g><path style="opacity:1" fill="#e6a68d" d="M 156.5,216.5 C 156.5,216.167 156.5,215.833 156.5,215.5C 156.833,215.5 157.167,215.5 157.5,215.5C 158.833,215.5 160.167,215.5 161.5,215.5C 161.167,216.167 160.833,216.833 160.5,217.5C 159.883,217.389 159.383,217.056 159,216.5C 158.768,217.737 158.268,218.737 157.5,219.5C 157.737,218.209 157.404,217.209 156.5,216.5 Z"/></g>
<g><path style="opacity:1" fill="#fc4605" d="M 156.5,216.5 C 157.404,217.209 157.737,218.209 157.5,219.5C 156.599,221.727 154.933,222.727 152.5,222.5C 149.813,222.664 147.146,222.497 144.5,222C 147.612,218.378 151.612,216.545 156.5,216.5 Z"/></g>
<g><path style="opacity:1" fill="#6e6425" d="M 187.5,200.5 C 189.167,200.5 190.833,200.5 192.5,200.5C 193.968,202.611 193.635,204.444 191.5,206C 188.022,207.24 184.689,208.74 181.5,210.5C 179.557,211.078 179.223,212.078 180.5,213.5C 178.089,214.088 176.089,215.255 174.5,217C 180.349,217.818 186.015,217.652 191.5,216.5C 192.167,216.5 192.833,216.5 193.5,216.5C 192,218.179 190.167,219.512 188,220.5C 187.667,220.167 187.333,219.833 187,219.5C 184.861,223.877 186.361,225.544 191.5,224.5C 180.404,225.704 170.071,223.371 160.5,217.5C 160.833,216.833 161.167,216.167 161.5,215.5C 164.891,214.471 167.557,212.471 169.5,209.5C 171.468,211.315 173.802,211.815 176.5,211C 177.406,209.301 177.739,207.467 177.5,205.5C 181.302,204.68 184.636,203.014 187.5,200.5 Z"/></g>
<g><path style="opacity:1" fill="#f95319" d="M 140.5,207.5 C 141.326,209.264 142.659,210.598 144.5,211.5C 144.5,213.167 144.5,214.833 144.5,216.5C 143.833,217.167 143.167,217.833 142.5,218.5C 141.5,219.167 140.5,219.833 139.5,220.5C 137.401,221.428 135.734,222.928 134.5,225C 130.147,225.533 129.814,225.199 133.5,224C 130.853,223.685 130.187,222.518 131.5,220.5C 132.949,219.828 134.282,219.161 135.5,218.5C 134.85,216.565 134.517,214.565 134.5,212.5C 136.148,210.571 137.815,208.571 139.5,206.5C 140.107,206.624 140.44,206.957 140.5,207.5 Z"/></g>
<g><path style="opacity:1" fill="#f9c5b3" d="M 136.5,212.5 C 138.377,213.659 138.877,215.326 138,217.5C 136.731,216.095 136.231,214.429 136.5,212.5 Z"/></g>
<g><path style="opacity:1" fill="#a3d7e3" d="M 296.5,183.5 C 290.56,208.722 278.893,230.722 261.5,249.5C 260.399,248.2 259.066,247.7 257.5,248C 257.957,248.414 258.291,248.914 258.5,249.5C 257.354,250.719 256.354,252.052 255.5,253.5C 253.786,252.391 253.119,253.058 253.5,255.5C 251.712,255.215 250.045,255.548 248.5,256.5C 251.182,259.335 250.516,260.502 246.5,260C 248.901,259.195 248.734,258.362 246,257.5C 244.989,258.337 243.822,258.67 242.5,258.5C 242.778,256.654 242.111,255.32 240.5,254.5C 239.124,255.842 237.791,257.175 236.5,258.5C 237.246,259.736 237.579,261.07 237.5,262.5C 235.284,262.725 233.617,261.892 232.5,260C 232.747,258.187 233.08,256.353 233.5,254.5C 234.736,253.754 236.07,253.421 237.5,253.5C 237.512,250.858 236.179,249.525 233.5,249.5C 233.431,246.916 232.265,244.916 230,243.5C 230.893,236.442 229.06,235.775 224.5,241.5C 222.316,242.266 219.982,242.933 217.5,243.5C 215.536,240.982 214.87,238.316 215.5,235.5C 213.885,238.45 211.885,241.116 209.5,243.5C 208.233,239.53 209.567,236.697 213.5,235C 212.396,233.869 212.729,233.035 214.5,232.5C 217.104,235.062 218.271,234.395 218,230.5C 215.876,231.227 213.709,231.894 211.5,232.5C 210.111,231.08 208.778,229.58 207.5,228C 210.129,226.509 212.962,225.343 216,224.5C 217.109,228.017 218.276,228.184 219.5,225C 218.047,223.287 218.214,221.787 220,220.5C 220.333,220.833 220.667,221.167 221,221.5C 221.483,220.552 221.649,219.552 221.5,218.5C 220.127,218.657 218.793,218.49 217.5,218C 218.833,217 218.833,216 217.5,215C 219.101,214.727 220.601,214.227 222,213.5C 222.494,215.134 222.66,216.801 222.5,218.5C 224.591,218.682 226.591,218.348 228.5,217.5C 228.833,217.833 229.167,218.167 229.5,218.5C 228.05,219.85 227.383,221.516 227.5,223.5C 230.393,222.477 233.226,222.477 236,223.5C 236.202,221.744 236.702,220.078 237.5,218.5C 241.249,220.111 243.249,218.777 243.5,214.5C 245.854,213.94 248.187,213.273 250.5,212.5C 252.086,210.33 253.42,207.996 254.5,205.5C 253.833,205.167 253.167,204.833 252.5,204.5C 252.185,202.264 252.185,199.931 252.5,197.5C 251.675,196.614 250.675,196.281 249.5,196.5C 249.392,198.783 248.559,200.783 247,202.5C 245.89,200.963 244.39,200.297 242.5,200.5C 242.215,198.712 242.548,197.045 243.5,195.5C 245.815,194.766 247.648,193.432 249,191.5C 249.984,193.795 250.817,193.461 251.5,190.5C 250.5,189.167 249.5,187.833 248.5,186.5C 245.365,187.137 242.365,186.471 239.5,184.5C 239.457,182.182 239.124,179.849 238.5,177.5C 239.822,172.571 240.822,167.571 241.5,162.5C 243.578,161.094 245.745,159.761 248,158.5C 248.249,159.624 248.749,160.624 249.5,161.5C 250.816,158.972 251.983,158.972 253,161.5C 255.526,159.672 257.86,157.672 260,155.5C 260.687,158.426 262.52,159.759 265.5,159.5C 265.649,160.552 265.483,161.552 265,162.5C 263.984,163.634 263.317,163.301 263,161.5C 262.365,162.966 261.531,164.3 260.5,165.5C 261.833,166.167 263.167,166.833 264.5,167.5C 262.031,168.605 260.364,170.438 259.5,173C 254.153,171.898 252.653,173.732 255,178.5C 256.608,176.9 258.441,175.567 260.5,174.5C 261.262,175.628 261.929,176.795 262.5,178C 260.956,178.29 259.623,178.956 258.5,180C 259.127,182.343 260.127,184.51 261.5,186.5C 261.023,187.478 260.357,188.311 259.5,189C 262.261,191.784 265.261,192.117 268.5,190C 267.167,189.333 267.167,188.667 268.5,188C 269.5,187.5 270.5,187 271.5,186.5C 273.214,187.609 273.881,186.942 273.5,184.5C 272.448,184.649 271.448,184.483 270.5,184C 272.939,178.27 276.939,175.437 282.5,175.5C 282.215,173.712 282.548,172.045 283.5,170.5C 284.23,171.934 285.23,173.1 286.5,174C 284.622,175.993 284.288,178.159 285.5,180.5C 287.064,177.864 288.397,178.031 289.5,181C 286.523,183.069 286.356,184.903 289,186.5C 290.979,185.286 292.479,183.619 293.5,181.5C 294.265,182.612 295.265,183.279 296.5,183.5 Z"/></g>
<g><path style="opacity:1" fill="#bde4eb" d="M 62.5,181.5 C 71.5384,205.535 87.5384,223.202 110.5,234.5C 109.081,234.639 107.748,235.139 106.5,236C 107.938,236.219 109.271,236.719 110.5,237.5C 110.333,237.833 110.167,238.167 110,238.5C 108.951,237.483 107.784,237.316 106.5,238C 109.632,239.405 111.966,241.572 113.5,244.5C 116.812,243.382 120.145,243.382 123.5,244.5C 123.354,246.942 124.187,247.609 126,246.5C 126.494,248.134 126.66,249.801 126.5,251.5C 128.401,251.567 130.234,251.233 132,250.5C 136.333,253.581 139.833,257.414 142.5,262C 144.479,262.684 146.146,262.184 147.5,260.5C 150.709,261.743 153.376,260.91 155.5,258C 155.167,257.667 154.833,257.333 154.5,257C 161.251,253.616 160.918,251.95 153.5,252C 157.746,249.198 160.913,250.031 163,254.5C 163.308,253.692 163.808,253.025 164.5,252.5C 165.611,253.611 166.945,254.278 168.5,254.5C 171.942,253.268 174.942,253.935 177.5,256.5C 179.731,253.05 181.898,253.383 184,257.5C 186.522,254.628 188.355,254.962 189.5,258.5C 190.452,256.955 190.785,255.288 190.5,253.5C 193.769,253.077 196.936,253.077 200,253.5C 201.011,252.944 201.844,252.278 202.5,251.5C 202.371,253.216 202.038,254.883 201.5,256.5C 200.5,257.833 199.5,259.167 198.5,260.5C 198.516,258.516 197.516,257.516 195.5,257.5C 193.577,258.092 191.911,259.092 190.5,260.5C 189.732,261.263 189.232,262.263 189,263.5C 187.149,261.219 185.482,261.219 184,263.5C 184.263,262.049 184.096,260.716 183.5,259.5C 181.958,258.253 180.458,258.253 179,259.5C 177.414,258.624 175.914,257.624 174.5,256.5C 173.261,258.007 173.595,259.174 175.5,260C 173.833,260.333 172.167,260.667 170.5,261C 170.833,261.333 171.167,261.667 171.5,262C 170.154,263.669 168.487,264.836 166.5,265.5C 166.167,265.5 165.833,265.5 165.5,265.5C 164.432,264.566 163.099,264.232 161.5,264.5C 161.104,261.956 161.771,259.789 163.5,258C 162.711,254.903 161.544,254.736 160,257.5C 159.586,257.043 159.086,256.709 158.5,256.5C 157.686,258.766 157.186,261.1 157,263.5C 156.047,261.627 154.88,261.294 153.5,262.5C 151.821,262.285 150.821,262.952 150.5,264.5C 150.5,265.5 150.5,266.5 150.5,267.5C 147.985,266.836 145.819,265.503 144,263.5C 143.481,264.516 142.647,265.182 141.5,265.5C 139.833,264.833 138.167,264.167 136.5,263.5C 134.484,263.805 132.484,264.138 130.5,264.5C 129.167,264.5 127.833,264.5 126.5,264.5C 125.5,264.5 124.5,264.5 123.5,264.5C 123.762,263.022 123.429,261.689 122.5,260.5C 121.914,260.709 121.414,261.043 121,261.5C 120.768,260.263 120.268,259.263 119.5,258.5C 118.227,255.479 116.227,254.479 113.5,255.5C 110.034,255.285 107.367,256.618 105.5,259.5C 106.705,260.995 106.705,262.328 105.5,263.5C 105.53,262.503 105.03,261.836 104,261.5C 102.323,263.005 100.489,264.338 98.5,265.5C 99.0944,263.145 100.094,260.978 101.5,259C 100.48,256.141 98.4799,254.641 95.5,254.5C 95.8333,252.5 96.1667,250.5 96.5,248.5C 95.325,248.281 94.325,248.614 93.5,249.5C 91.7737,253.953 89.7737,258.286 87.5,262.5C 88,262.833 88.5,263.167 89,263.5C 90.7339,261.71 92.2339,259.71 93.5,257.5C 94.6888,256.571 96.0222,256.238 97.5,256.5C 97.7949,260.077 96.7949,263.243 94.5,266C 95.056,266.383 95.3893,266.883 95.5,267.5C 92.8333,267.5 90.1667,267.5 87.5,267.5C 87.6399,265.876 86.9733,264.71 85.5,264C 85.9574,263.586 86.2907,263.086 86.5,262.5C 84.1161,261.989 82.1161,260.989 80.5,259.5C 83.1059,256.872 85.4392,253.872 87.5,250.5C 87.1667,249.5 86.5,248.833 85.5,248.5C 83.566,250.724 81.8994,253.058 80.5,255.5C 79.5868,253.914 79.5868,252.414 80.5,251C 79.9341,250.005 79.2674,249.172 78.5,248.5C 80.314,246.035 81.6473,243.368 82.5,240.5C 80.0901,240.921 78.2568,242.254 77,244.5C 74.9404,247.286 73.4404,250.286 72.5,253.5C 71.7321,252.737 71.2321,251.737 71,250.5C 69.5944,251.668 68.4277,251.335 67.5,249.5C 65.7179,252.382 63.8846,252.715 62,250.5C 60.6667,251.167 59.6667,252.167 59,253.5C 58.4054,252.101 58.5721,250.768 59.5,249.5C 58.066,247.78 57.2326,245.78 57,243.5C 56.1376,245.087 55.4709,246.754 55,248.5C 53.3117,247.675 53.1451,246.675 54.5,245.5C 52.5787,244.359 50.5787,244.192 48.5,245C 49.1667,245.333 49.8333,245.667 50.5,246C 48.2134,248.962 45.3801,251.129 42,252.5C 41.3378,249.583 39.5045,248.25 36.5,248.5C 29.7629,241.586 23.9296,233.92 19,225.5C 14.6568,217.819 11.1568,209.819 8.5,201.5C 11.2482,200.968 13.2482,199.968 14.5,198.5C 14.3505,197.448 14.5172,196.448 15,195.5C 16.7633,195.306 18.5967,195.306 20.5,195.5C 24.0959,194.05 27.2626,192.05 30,189.5C 31.0113,190.337 32.1779,190.67 33.5,190.5C 33.6932,194.449 34.1932,194.449 35,190.5C 36.1133,192.329 37.6133,193.163 39.5,193C 37.3843,191.829 36.7176,190.329 37.5,188.5C 41.0421,192.122 41.3755,191.455 38.5,186.5C 37.3687,185.396 36.5354,185.729 36,187.5C 34.6387,185.972 33.472,184.305 32.5,182.5C 33.7582,183.016 34.7582,182.35 35.5,180.5C 36.1924,181.025 36.6924,181.692 37,182.5C 38.0113,181.663 39.1779,181.33 40.5,181.5C 40.0138,187.184 42.5138,190.85 48,192.5C 48.3333,191.5 48.6667,190.5 49,189.5C 49.4226,190.956 50.2559,191.456 51.5,191C 50.6959,189.229 49.5292,187.729 48,186.5C 47.6667,187.5 47.3333,188.5 47,189.5C 45.513,188.747 45.3463,187.914 46.5,187C 44.9559,186.71 43.6226,186.044 42.5,185C 45.0991,184.231 47.5991,184.398 50,185.5C 50.5,185 51,184.5 51.5,184C 50.3333,182.5 49.1667,181 48,179.5C 47.7104,181.044 47.0437,182.377 46,183.5C 44.9025,182.033 43.4025,181.199 41.5,181C 40.8333,180 40.1667,179 39.5,178C 40.9733,177.29 41.6399,176.124 41.5,174.5C 44.7973,174.671 45.1306,174.005 42.5,172.5C 43.7598,171.618 44.9264,170.618 46,169.5C 46.6449,170.646 47.4783,171.646 48.5,172.5C 47.3128,173.519 46.3128,174.686 45.5,176C 47.8468,176.846 49.6801,178.346 51,180.5C 52.6282,179.903 54.2949,180.237 56,181.5C 58.1062,179.069 60.2728,179.069 62.5,181.5 Z"/></g>
<g><path style="opacity:1" fill="#403c10" d="M 191.5,224.5 C 186.361,225.544 184.861,223.877 187,219.5C 187.333,219.833 187.667,220.167 188,220.5C 190.167,219.512 192,218.179 193.5,216.5C 196.073,215.445 198.739,215.278 201.5,216C 204.326,218.522 203.993,220.522 200.5,222C 197.568,223.145 194.568,223.978 191.5,224.5 Z"/></g>
<g><path style="opacity:1" fill="#f96836" d="M 156.5,215.5 C 156.5,215.833 156.5,216.167 156.5,216.5C 151.612,216.545 147.612,218.378 144.5,222C 147.146,222.497 149.813,222.664 152.5,222.5C 150.708,223.309 148.708,223.809 146.5,224C 150.843,227.384 150.51,228.551 145.5,227.5C 145.092,226.357 144.425,225.357 143.5,224.5C 142.289,225.274 142.289,226.107 143.5,227C 142.207,227.49 140.873,227.657 139.5,227.5C 139.53,226.503 139.03,225.836 138,225.5C 134.384,227.123 131.05,226.79 128,224.5C 128.149,219.868 130.649,217.868 135.5,218.5C 134.282,219.161 132.949,219.828 131.5,220.5C 130.187,222.518 130.853,223.685 133.5,224C 129.814,225.199 130.147,225.533 134.5,225C 135.734,222.928 137.401,221.428 139.5,220.5C 141.225,223.188 142.558,222.855 143.5,219.5C 143.376,218.893 143.043,218.56 142.5,218.5C 143.167,217.833 143.833,217.167 144.5,216.5C 146.307,215.385 148.307,214.719 150.5,214.5C 152.512,214.84 154.512,215.173 156.5,215.5 Z"/></g>
<g><path style="opacity:1" fill="#954a4c" d="M 142.5,218.5 C 143.043,218.56 143.376,218.893 143.5,219.5C 142.558,222.855 141.225,223.188 139.5,220.5C 140.5,219.833 141.5,219.167 142.5,218.5 Z"/></g>
<g><path style="opacity:1" fill="#ed6f61" d="M 61.5,225.5 C 64.0217,225.128 66.0217,225.961 67.5,228C 67,228.5 66.5,229 66,229.5C 64.8173,228.269 63.6507,228.269 62.5,229.5C 63.8333,232.167 63.1667,232.833 60.5,231.5C 58.6841,232.815 57.0175,234.315 55.5,236C 54.552,236.483 53.552,236.649 52.5,236.5C 55.081,232.576 58.081,228.91 61.5,225.5 Z"/></g>
<g><path style="opacity:1" fill="#fda183" d="M 145.5,227.5 C 143.389,228.742 141.389,228.742 139.5,227.5C 140.873,227.657 142.207,227.49 143.5,227C 142.289,226.107 142.289,225.274 143.5,224.5C 144.425,225.357 145.092,226.357 145.5,227.5 Z"/></g>
<g><path style="opacity:1" fill="#ec6d5f" d="M 237.5,228.5 C 245.339,228.788 246.173,231.121 240,235.5C 239.517,236.448 239.351,237.448 239.5,238.5C 240.822,238.67 241.989,238.337 243,237.5C 243.098,235.381 243.931,233.714 245.5,232.5C 246.695,238.801 244.029,241.301 237.5,240C 233.555,236.169 233.555,232.336 237.5,228.5 Z"/></g>
<g><path style="opacity:1" fill="#b2c3ca" d="M 237.5,231.5 C 241.193,232.247 241.193,233.58 237.5,235.5C 236.374,234.192 236.374,232.858 237.5,231.5 Z"/></g>
<g><path style="opacity:1" fill="#eb7163" d="M 233.5,249.5 C 229.915,247.587 226.915,244.92 224.5,241.5C 229.06,235.775 230.893,236.442 230,243.5C 232.265,244.916 233.431,246.916 233.5,249.5 Z"/></g>
<g><path style="opacity:1" fill="#ed6f61" d="M 64.5,235.5 C 68.7326,234.742 71.3993,236.409 72.5,240.5C 70.8593,243.636 68.6926,246.303 66,248.5C 63.8075,247.07 61.8075,245.403 60,243.5C 59.1399,240.522 60.3066,239.188 63.5,239.5C 65.4809,239.437 67.1476,240.104 68.5,241.5C 69.3857,240.675 69.719,239.675 69.5,238.5C 66.715,239.084 65.0483,238.084 64.5,235.5 Z"/></g>
<g><path style="opacity:1" fill="#c1d2d6" d="M 62.5,241.5 C 63.8333,241.5 65.1667,241.5 66.5,241.5C 66.5,242.5 66.5,243.5 66.5,244.5C 65.1667,244.5 63.8333,244.5 62.5,244.5C 62.5,243.5 62.5,242.5 62.5,241.5 Z"/></g>
<g><path style="opacity:1" fill="#aadbe6" d="M 238.5,177.5 C 239.124,179.849 239.457,182.182 239.5,184.5C 242.365,186.471 245.365,187.137 248.5,186.5C 249.5,187.833 250.5,189.167 251.5,190.5C 250.817,193.461 249.984,193.795 249,191.5C 247.648,193.432 245.815,194.766 243.5,195.5C 242.548,197.045 242.215,198.712 242.5,200.5C 244.39,200.297 245.89,200.963 247,202.5C 248.559,200.783 249.392,198.783 249.5,196.5C 250.675,196.281 251.675,196.614 252.5,197.5C 252.185,199.931 252.185,202.264 252.5,204.5C 253.167,204.833 253.833,205.167 254.5,205.5C 253.42,207.996 252.086,210.33 250.5,212.5C 248.187,213.273 245.854,213.94 243.5,214.5C 243.249,218.777 241.249,220.111 237.5,218.5C 236.702,220.078 236.202,221.744 236,223.5C 233.226,222.477 230.393,222.477 227.5,223.5C 227.383,221.516 228.05,219.85 229.5,218.5C 229.167,218.167 228.833,217.833 228.5,217.5C 226.591,218.348 224.591,218.682 222.5,218.5C 222.66,216.801 222.494,215.134 222,213.5C 220.601,214.227 219.101,214.727 217.5,215C 218.833,216 218.833,217 217.5,218C 218.793,218.49 220.127,218.657 221.5,218.5C 221.649,219.552 221.483,220.552 221,221.5C 220.667,221.167 220.333,220.833 220,220.5C 218.214,221.787 218.047,223.287 219.5,225C 218.276,228.184 217.109,228.017 216,224.5C 212.962,225.343 210.129,226.509 207.5,228C 208.778,229.58 210.111,231.08 211.5,232.5C 213.709,231.894 215.876,231.227 218,230.5C 218.271,234.395 217.104,235.062 214.5,232.5C 212.729,233.035 212.396,233.869 213.5,235C 209.567,236.697 208.233,239.53 209.5,243.5C 211.885,241.116 213.885,238.45 215.5,235.5C 214.87,238.316 215.536,240.982 217.5,243.5C 219.982,242.933 222.316,242.266 224.5,241.5C 226.915,244.92 229.915,247.587 233.5,249.5C 231.849,250.547 230.183,251.714 228.5,253C 229.5,253.333 230.5,253.667 231.5,254C 229.517,255.707 227.517,255.874 225.5,254.5C 225.847,249.681 223.68,246.681 219,245.5C 214.796,246.535 212.63,249.202 212.5,253.5C 212.542,261.115 211.209,261.448 208.5,254.5C 207.105,252.621 205.105,251.621 202.5,251.5C 201.844,252.278 201.011,252.944 200,253.5C 196.936,253.077 193.769,253.077 190.5,253.5C 190.785,255.288 190.452,256.955 189.5,258.5C 188.355,254.962 186.522,254.628 184,257.5C 181.898,253.383 179.731,253.05 177.5,256.5C 174.942,253.935 171.942,253.268 168.5,254.5C 166.945,254.278 165.611,253.611 164.5,252.5C 163.808,253.025 163.308,253.692 163,254.5C 160.913,250.031 157.746,249.198 153.5,252C 160.918,251.95 161.251,253.616 154.5,257C 154.833,257.333 155.167,257.667 155.5,258C 153.376,260.91 150.709,261.743 147.5,260.5C 146.146,262.184 144.479,262.684 142.5,262C 139.833,257.414 136.333,253.581 132,250.5C 130.234,251.233 128.401,251.567 126.5,251.5C 126.66,249.801 126.494,248.134 126,246.5C 124.187,247.609 123.354,246.942 123.5,244.5C 120.145,243.382 116.812,243.382 113.5,244.5C 111.966,241.572 109.632,239.405 106.5,238C 107.784,237.316 108.951,237.483 110,238.5C 110.167,238.167 110.333,237.833 110.5,237.5C 109.271,236.719 107.938,236.219 106.5,236C 107.748,235.139 109.081,234.639 110.5,234.5C 117.191,236.564 123.857,238.73 130.5,241C 136.3,241.884 142.133,242.384 148,242.5C 192.873,241.006 223.04,219.339 238.5,177.5 Z"/></g>
<g><path style="opacity:1" fill="#ec7062" d="M 78.5,248.5 C 76.4389,250.327 75.1056,252.66 74.5,255.5C 73.8165,255.137 73.1499,254.804 72.5,254.5C 72.5,254.167 72.5,253.833 72.5,253.5C 73.4404,250.286 74.9404,247.286 77,244.5C 78.2568,242.254 80.0901,240.921 82.5,240.5C 81.6473,243.368 80.314,246.035 78.5,248.5 Z"/></g>
<g><path style="opacity:1" fill="#ed6d5f" d="M 86.5,245.5 C 87.675,245.281 88.675,245.614 89.5,246.5C 87.9483,247.798 86.9483,247.465 86.5,245.5 Z"/></g>
<g><path style="opacity:1" fill="#ea7265" d="M 225.5,254.5 C 220.569,260.172 216.235,259.839 212.5,253.5C 212.63,249.202 214.796,246.535 219,245.5C 223.68,246.681 225.847,249.681 225.5,254.5 Z"/></g>
<g><path style="opacity:1" fill="#ed7061" d="M 98.5,265.5 C 97.7777,266.551 96.7777,267.218 95.5,267.5C 95.3893,266.883 95.056,266.383 94.5,266C 96.7949,263.243 97.7949,260.077 97.5,256.5C 96.0222,256.238 94.6888,256.571 93.5,257.5C 92.2339,259.71 90.7339,261.71 89,263.5C 88.5,263.167 88,262.833 87.5,262.5C 89.7737,258.286 91.7737,253.953 93.5,249.5C 94.325,248.614 95.325,248.281 96.5,248.5C 96.1667,250.5 95.8333,252.5 95.5,254.5C 98.4799,254.641 100.48,256.141 101.5,259C 100.094,260.978 99.0944,263.145 98.5,265.5 Z"/></g>
<g><path style="opacity:1" fill="#ec7062" d="M 202.5,251.5 C 205.105,251.621 207.105,252.621 208.5,254.5C 207.624,254.369 206.957,254.702 206.5,255.5C 207.806,258.457 209.806,260.791 212.5,262.5C 211.672,263.415 210.672,264.081 209.5,264.5C 207.11,262.733 205.443,260.4 204.5,257.5C 203.675,256.614 202.675,256.281 201.5,256.5C 202.038,254.883 202.371,253.216 202.5,251.5 Z"/></g>
<g><path style="opacity:1" fill="#b6d7de" d="M 216.5,248.5 C 221.486,248.305 223.152,250.472 221.5,255C 216.614,255.412 214.948,253.245 216.5,248.5 Z"/></g>
<g><path style="opacity:1" fill="#ed7062" d="M 80.5,259.5 C 79.1667,258.167 79.1667,256.833 80.5,255.5C 81.8994,253.058 83.566,250.724 85.5,248.5C 86.5,248.833 87.1667,249.5 87.5,250.5C 85.4392,253.872 83.1059,256.872 80.5,259.5 Z"/></g>
<g><path style="opacity:1" fill="#ed6e60" d="M 113.5,255.5 C 113.179,257.048 112.179,257.715 110.5,257.5C 110.421,258.93 110.754,260.264 111.5,261.5C 110.675,262.386 109.675,262.719 108.5,262.5C 108.468,265.994 107.135,268.661 104.5,270.5C 103.673,268.206 104.006,265.873 105.5,263.5C 106.705,262.328 106.705,260.995 105.5,259.5C 107.367,256.618 110.034,255.285 113.5,255.5 Z"/></g>
<g><path style="opacity:1" fill="#a5d9e4" d="M 72.5,253.5 C 72.5,253.833 72.5,254.167 72.5,254.5C 72.4226,255.75 71.756,256.583 70.5,257C 71.8333,258 71.8333,259 70.5,260C 71.7932,260.49 73.1266,260.657 74.5,260.5C 76.0378,264.031 77.0378,267.697 77.5,271.5C 78.8734,271.343 80.2068,271.51 81.5,272C 80.2404,273.814 80.2404,275.647 81.5,277.5C 83.2647,277.305 84.7647,277.305 86,277.5C 86.5205,275.711 86.1871,274.044 85,272.5C 84.0862,273.654 83.2529,273.487 82.5,272C 83.5838,269.81 82.9171,268.144 80.5,267C 81.4162,266.626 82.2496,266.126 83,265.5C 83.8996,266.77 85.0663,267.77 86.5,268.5C 85.1886,269.258 84.6886,270.258 85,271.5C 86.3876,270.446 87.8876,270.28 89.5,271C 92.7733,274.327 96.6067,275.494 101,274.5C 101.595,278.082 102.929,278.416 105,275.5C 106.855,277.36 108.355,279.527 109.5,282C 109.355,282.772 109.022,283.439 108.5,284C 106.5,284.667 104.5,284.667 102.5,284C 101.167,282.267 99.6665,280.767 98,279.5C 88.2842,283.594 88.7842,285.928 99.5,286.5C 98.9478,288.003 98.9478,289.669 99.5,291.5C 74.3761,283.015 53.3761,268.682 36.5,248.5C 39.5045,248.25 41.3378,249.583 42,252.5C 45.3801,251.129 48.2134,248.962 50.5,246C 49.8333,245.667 49.1667,245.333 48.5,245C 50.5787,244.192 52.5787,244.359 54.5,245.5C 53.1451,246.675 53.3117,247.675 55,248.5C 55.4709,246.754 56.1376,245.087 57,243.5C 57.2326,245.78 58.066,247.78 59.5,249.5C 58.5721,250.768 58.4054,252.101 59,253.5C 59.6667,252.167 60.6667,251.167 62,250.5C 63.8846,252.715 65.7179,252.382 67.5,249.5C 68.4277,251.335 69.5944,251.668 71,250.5C 71.2321,251.737 71.7321,252.737 72.5,253.5 Z"/></g>
<g><path style="opacity:1" fill="#b4dee6" d="M 78.5,248.5 C 79.2674,249.172 79.9341,250.005 80.5,251C 79.5868,252.414 79.5868,253.914 80.5,255.5C 79.1667,256.833 79.1667,258.167 80.5,259.5C 82.1161,260.989 84.1161,261.989 86.5,262.5C 86.2907,263.086 85.9574,263.586 85.5,264C 86.9733,264.71 87.6399,265.876 87.5,267.5C 90.1667,267.5 92.8333,267.5 95.5,267.5C 96.7777,267.218 97.7777,266.551 98.5,265.5C 100.489,264.338 102.323,263.005 104,261.5C 105.03,261.836 105.53,262.503 105.5,263.5C 104.006,265.873 103.673,268.206 104.5,270.5C 105.611,271.66 106.611,272.993 107.5,274.5C 108.192,273.975 108.692,273.308 109,272.5C 110.916,274.209 113.082,275.543 115.5,276.5C 114.96,277.748 114.293,278.915 113.5,280C 114.449,280.617 115.282,280.451 116,279.5C 117.667,282.167 119.333,282.167 121,279.5C 121.18,281.488 121.014,283.488 120.5,285.5C 121.552,285.649 122.552,285.483 123.5,285C 122.483,283.951 122.316,282.784 123,281.5C 124.333,284.167 125.667,284.167 127,281.5C 128.832,282.858 130.665,283.192 132.5,282.5C 133.695,284.297 135.362,285.297 137.5,285.5C 137.351,284.448 137.517,283.448 138,282.5C 138.333,282.833 138.667,283.167 139,283.5C 139.508,281.096 140.675,280.429 142.5,281.5C 141.494,282.396 141.494,283.062 142.5,283.5C 146.125,279.565 149.625,279.899 153,284.5C 153.333,284.167 153.667,283.833 154,283.5C 154.492,284.549 154.326,285.549 153.5,286.5C 154.901,288.277 156.401,289.944 158,291.5C 159.709,289.825 161.376,288.158 163,286.5C 165.421,288.574 165.588,291.074 163.5,294C 165.607,295.264 166.607,297.097 166.5,299.5C 165.167,299.5 163.833,299.5 162.5,299.5C 162.539,298.417 162.873,297.417 163.5,296.5C 163,296.167 162.5,295.833 162,295.5C 158.726,298.767 155.226,299.101 151.5,296.5C 150.033,296.723 148.533,297.056 147,297.5C 145.107,294.626 142.607,293.626 139.5,294.5C 138.515,292.228 137.681,289.895 137,287.5C 134.202,290.845 131.202,291.179 128,288.5C 127.716,290.886 126.716,291.552 125,290.5C 122.782,291.472 120.449,292.139 118,292.5C 115.374,291.461 112.707,291.461 110,292.5C 107.233,292.245 104.567,291.578 102,290.5C 100.97,290.836 100.47,291.503 100.5,292.5C 99.8333,292.5 99.5,292.167 99.5,291.5C 98.9478,289.669 98.9478,288.003 99.5,286.5C 88.7842,285.928 88.2842,283.594 98,279.5C 99.6665,280.767 101.167,282.267 102.5,284C 104.5,284.667 106.5,284.667 108.5,284C 109.022,283.439 109.355,282.772 109.5,282C 108.355,279.527 106.855,277.36 105,275.5C 102.929,278.416 101.595,278.082 101,274.5C 96.6067,275.494 92.7733,274.327 89.5,271C 87.8876,270.28 86.3876,270.446 85,271.5C 84.6886,270.258 85.1886,269.258 86.5,268.5C 85.0663,267.77 83.8996,266.77 83,265.5C 82.2496,266.126 81.4162,266.626 80.5,267C 82.9171,268.144 83.5838,269.81 82.5,272C 83.2529,273.487 84.0862,273.654 85,272.5C 86.1871,274.044 86.5205,275.711 86,277.5C 84.7647,277.305 83.2647,277.305 81.5,277.5C 80.2404,275.647 80.2404,273.814 81.5,272C 80.2068,271.51 78.8734,271.343 77.5,271.5C 77.0378,267.697 76.0378,264.031 74.5,260.5C 73.1266,260.657 71.7932,260.49 70.5,260C 71.8333,259 71.8333,258 70.5,257C 71.756,256.583 72.4226,255.75 72.5,254.5C 73.1499,254.804 73.8165,255.137 74.5,255.5C 75.1056,252.66 76.4389,250.327 78.5,248.5 Z"/></g>
<g><path style="opacity:1" fill="#c2e4ea" d="M 261.5,249.5 C 244.881,269.239 224.214,283.406 199.5,292C 189.526,295.16 179.526,297.66 169.5,299.5C 168.5,299.5 167.5,299.5 166.5,299.5C 166.607,297.097 165.607,295.264 163.5,294C 165.588,291.074 165.421,288.574 163,286.5C 161.376,288.158 159.709,289.825 158,291.5C 156.401,289.944 154.901,288.277 153.5,286.5C 154.326,285.549 154.492,284.549 154,283.5C 153.667,283.833 153.333,284.167 153,284.5C 149.625,279.899 146.125,279.565 142.5,283.5C 141.494,283.062 141.494,282.396 142.5,281.5C 140.675,280.429 139.508,281.096 139,283.5C 138.667,283.167 138.333,282.833 138,282.5C 137.517,283.448 137.351,284.448 137.5,285.5C 135.362,285.297 133.695,284.297 132.5,282.5C 130.665,283.192 128.832,282.858 127,281.5C 125.667,284.167 124.333,284.167 123,281.5C 122.316,282.784 122.483,283.951 123.5,285C 122.552,285.483 121.552,285.649 120.5,285.5C 121.014,283.488 121.18,281.488 121,279.5C 119.333,282.167 117.667,282.167 116,279.5C 115.282,280.451 114.449,280.617 113.5,280C 114.293,278.915 114.96,277.748 115.5,276.5C 113.082,275.543 110.916,274.209 109,272.5C 108.692,273.308 108.192,273.975 107.5,274.5C 106.611,272.993 105.611,271.66 104.5,270.5C 107.135,268.661 108.468,265.994 108.5,262.5C 109.675,262.719 110.675,262.386 111.5,261.5C 110.754,260.264 110.421,258.93 110.5,257.5C 112.179,257.715 113.179,257.048 113.5,255.5C 116.227,254.479 118.227,255.479 119.5,258.5C 120.268,259.263 120.768,260.263 121,261.5C 121.414,261.043 121.914,260.709 122.5,260.5C 123.429,261.689 123.762,263.022 123.5,264.5C 124.5,264.5 125.5,264.5 126.5,264.5C 121.78,267.939 121.446,271.773 125.5,276C 133,277.833 135.833,275 134,267.5C 132.855,266.364 131.688,265.364 130.5,264.5C 132.484,264.138 134.484,263.805 136.5,263.5C 138.167,264.167 139.833,264.833 141.5,265.5C 142.647,265.182 143.481,264.516 144,263.5C 145.819,265.503 147.985,266.836 150.5,267.5C 150.5,266.5 150.5,265.5 150.5,264.5C 152.598,265.914 153.598,265.248 153.5,262.5C 154.88,261.294 156.047,261.627 157,263.5C 157.186,261.1 157.686,258.766 158.5,256.5C 159.086,256.709 159.586,257.043 160,257.5C 161.544,254.736 162.711,254.903 163.5,258C 161.771,259.789 161.104,261.956 161.5,264.5C 163.099,264.232 164.432,264.566 165.5,265.5C 160.514,265.305 158.848,267.472 160.5,272C 162.78,272.233 164.78,273.066 166.5,274.5C 164.138,274.974 161.805,275.308 159.5,275.5C 160.527,277.024 162.027,277.691 164,277.5C 168.249,277.604 169.749,275.771 168.5,272C 166.655,270.872 164.655,270.372 162.5,270.5C 162.281,269.325 162.614,268.325 163.5,267.5C 166.535,269.04 167.535,268.373 166.5,265.5C 168.487,264.836 170.154,263.669 171.5,262C 171.167,261.667 170.833,261.333 170.5,261C 172.167,260.667 173.833,260.333 175.5,260C 173.595,259.174 173.261,258.007 174.5,256.5C 175.914,257.624 177.414,258.624 179,259.5C 180.458,258.253 181.958,258.253 183.5,259.5C 184.096,260.716 184.263,262.049 184,263.5C 185.482,261.219 187.149,261.219 189,263.5C 189.232,262.263 189.732,261.263 190.5,260.5C 190.297,262.39 190.963,263.89 192.5,265C 200.5,266 200.5,267 192.5,268C 194.614,269.518 196.947,269.851 199.5,269C 201.602,267.267 201.935,265.267 200.5,263C 198.19,262.503 195.857,262.337 193.5,262.5C 193.5,261.5 193.5,260.5 193.5,259.5C 195.216,259.629 196.883,259.962 198.5,260.5C 199.5,259.167 200.5,257.833 201.5,256.5C 202.675,256.281 203.675,256.614 204.5,257.5C 205.443,260.4 207.11,262.733 209.5,264.5C 210.672,264.081 211.672,263.415 212.5,262.5C 209.806,260.791 207.806,258.457 206.5,255.5C 206.957,254.702 207.624,254.369 208.5,254.5C 211.209,261.448 212.542,261.115 212.5,253.5C 216.235,259.839 220.569,260.172 225.5,254.5C 227.517,255.874 229.517,255.707 231.5,254C 230.5,253.667 229.5,253.333 228.5,253C 230.183,251.714 231.849,250.547 233.5,249.5C 236.179,249.525 237.512,250.858 237.5,253.5C 236.07,253.421 234.736,253.754 233.5,254.5C 233.08,256.353 232.747,258.187 232.5,260C 233.617,261.892 235.284,262.725 237.5,262.5C 237.579,261.07 237.246,259.736 236.5,258.5C 237.791,257.175 239.124,255.842 240.5,254.5C 242.111,255.32 242.778,256.654 242.5,258.5C 243.822,258.67 244.989,258.337 246,257.5C 248.734,258.362 248.901,259.195 246.5,260C 250.516,260.502 251.182,259.335 248.5,256.5C 250.045,255.548 251.712,255.215 253.5,255.5C 253.119,253.058 253.786,252.391 255.5,253.5C 256.354,252.052 257.354,250.719 258.5,249.5C 258.291,248.914 257.957,248.414 257.5,248C 259.066,247.7 260.399,248.2 261.5,249.5 Z"/></g>
<g><path style="opacity:1" fill="#ed7061" d="M 165.5,265.5 C 165.833,265.5 166.167,265.5 166.5,265.5C 167.535,268.373 166.535,269.04 163.5,267.5C 162.614,268.325 162.281,269.325 162.5,270.5C 164.655,270.372 166.655,270.872 168.5,272C 169.749,275.771 168.249,277.604 164,277.5C 162.027,277.691 160.527,277.024 159.5,275.5C 161.805,275.308 164.138,274.974 166.5,274.5C 164.78,273.066 162.78,272.233 160.5,272C 158.848,267.472 160.514,265.305 165.5,265.5 Z"/></g>
<g><path style="opacity:1" fill="#ea796c" d="M 185.5,269.5 C 188.861,270.203 189.194,271.537 186.5,273.5C 184.358,272.563 184.024,271.23 185.5,269.5 Z"/></g>
<g><path style="opacity:1" fill="#ec7365" d="M 119.5,258.5 C 119.053,262.787 118.053,266.953 116.5,271C 117.749,272.538 117.582,273.705 116,274.5C 114.268,274.266 113.434,273.266 113.5,271.5C 114.715,267.196 115.715,262.862 116.5,258.5C 117.5,258.5 118.5,258.5 119.5,258.5 Z"/></g>
<g><path style="opacity:1" fill="#ed6f61" d="M 126.5,264.5 C 127.833,264.5 129.167,264.5 130.5,264.5C 131.688,265.364 132.855,266.364 134,267.5C 135.833,275 133,277.833 125.5,276C 121.446,271.773 121.78,267.939 126.5,264.5 Z"/></g>
<g><path style="opacity:1" fill="#ec7365" d="M 151.5,266.5 C 152.5,266.5 153.5,266.5 154.5,266.5C 154.5,270.5 154.5,274.5 154.5,278.5C 153.5,278.5 152.5,278.5 151.5,278.5C 151.5,274.5 151.5,270.5 151.5,266.5 Z"/></g>
<g><path style="opacity:1" fill="#ec7466" d="M 139.5,266.5 C 141.674,266.92 143.674,266.92 145.5,266.5C 146.386,267.325 146.719,268.325 146.5,269.5C 145.178,269.33 144.011,269.663 143,270.5C 142.503,273.146 142.336,275.813 142.5,278.5C 141.5,278.5 140.5,278.5 139.5,278.5C 139.5,274.5 139.5,270.5 139.5,266.5 Z"/></g>
<g><path style="opacity:1" fill="#c5d6da" d="M 127.5,266.5 C 128.822,266.33 129.989,266.663 131,267.5C 131.758,269.769 131.591,271.936 130.5,274C 128.888,274.72 127.388,274.554 126,273.5C 125.391,270.935 125.891,268.601 127.5,266.5 Z"/></g>
<g><path style="opacity:1" fill="#ed6f60" d="M 172.5,261.5 C 174.711,261.967 176.711,262.967 178.5,264.5C 177.689,265.216 177.022,266.05 176.5,267C 176.734,270.176 178.068,272.676 180.5,274.5C 178.833,275.833 177.167,275.833 175.5,274.5C 174.787,272.224 174.287,269.891 174,267.5C 173.075,266.953 172.242,266.287 171.5,265.5C 172.246,264.264 172.579,262.93 172.5,261.5 Z"/></g>
<g><path style="opacity:1" fill="#eb7466" d="M 153.5,262.5 C 153.598,265.248 152.598,265.914 150.5,264.5C 150.821,262.952 151.821,262.285 153.5,262.5 Z"/></g>
<g><path style="opacity:1" fill="#ed6f61" d="M 198.5,260.5 C 196.883,259.962 195.216,259.629 193.5,259.5C 193.5,260.5 193.5,261.5 193.5,262.5C 195.857,262.337 198.19,262.503 200.5,263C 201.935,265.267 201.602,267.267 199.5,269C 196.947,269.851 194.614,269.518 192.5,268C 200.5,267 200.5,266 192.5,265C 190.963,263.89 190.297,262.39 190.5,260.5C 191.911,259.092 193.577,258.092 195.5,257.5C 197.516,257.516 198.516,258.516 198.5,260.5 Z"/></g>
<g><path style="opacity:1" fill="#99cfdc" d="M 162.5,299.5 C 151.5,299.5 140.5,299.5 129.5,299.5C 119.833,297.667 110.166,295.334 100.5,292.5C 100.47,291.503 100.97,290.836 102,290.5C 104.567,291.578 107.233,292.245 110,292.5C 112.707,291.461 115.374,291.461 118,292.5C 120.449,292.139 122.782,291.472 125,290.5C 126.716,291.552 127.716,290.886 128,288.5C 131.202,291.179 134.202,290.845 137,287.5C 137.681,289.895 138.515,292.228 139.5,294.5C 142.607,293.626 145.107,294.626 147,297.5C 148.533,297.056 150.033,296.723 151.5,296.5C 155.226,299.101 158.726,298.767 162,295.5C 162.5,295.833 163,296.167 163.5,296.5C 162.873,297.417 162.539,298.417 162.5,299.5 Z"/></g>
</svg>
